<svg xmlns="http://www.w3.org/2000/svg" viewBox="0 0 444.8 512"><path fill="#ffffff" d="M233.7.4c27.9-.4 55.6-.1 83.4-.4 1.7 32.7 13.4 65.9 37.3 89 23.9 23.7 57.6 34.5 90.4 38.2v85.9c-30.8-1-61.7-7.4-89.6-20.7-12.2-5.5-23.5-12.6-34.6-19.8-.1 62.3.3 124.6-.4 186.7-1.7 29.8-11.5 59.5-28.8 84.1-27.9 40.9-76.3 67.6-126.1 68.4-30.5 1.7-61-6.6-87-21.9C35.2 464.5 4.9 417.9.5 368c-.5-10.7-.7-21.3-.3-31.7 3.8-40.6 23.9-79.4 55.1-105.8 35.3-30.8 84.8-45.4 131.2-36.8.4 31.6-.8 63.2-.8 94.8-21.2-6.8-45.9-4.9-64.4 7.9-13.5 8.8-23.8 22.2-29.1 37.3-4.4 10.8-3.2 22.8-2.9 34.3 5.1 35 38.7 64.4 74.7 61.3 23.8-.3 46.7-14.1 59.1-34.3 4-7.1 8.5-14.3 8.8-22.7 2.1-38.2 1.3-76.2 1.5-114.3.1-86.1-.4-171.8.3-257.6z"/></svg>