<svg height="8.105" viewBox="0 0 188.483 8.105" width="188.483" xmlns="http://www.w3.org/2000/svg"><g fill="#363636"><path d="m1.105 4.629c.382-1.334.763-2.655 1.18-3.989h10.474c-.137.593-.211.889-.61 2.28a2.553 2.553 0 0 1 -1.636 1.891 1.389 1.389 0 0 1 .781 1.778c-.176.6-.411 1.425-.593 2.029h-2.601l.421-1.482c.12-.411 0-.672-.661-.672h-4.635l-.615 2.153h-2.61c.348-1.333.723-2.655 1.105-3.988zm2.595.353a1.643 1.643 0 0 1 1.407-.662h3.2a.964.964 0 0 0 .963-.775l.213-.745h-5.209l-.621 2.181h.047z" transform="translate(0 -.576)"/><path d="m134.919 5.478c.251-1.083 1.18-4.193 1.555-5.4 2.98-.057 6.975-.079 7.744-.045 2.108.1 3.316 1 2.94 2.61a22.254 22.254 0 0 1 -.82 2.838c-.536 1.539-1.743 2.53-3.977 2.61-.656.023-3.778.023-4.49 0-2.256-.077-3.299-1.131-2.952-2.613zm7.916.411a.863.863 0 0 0 .963-.729l.632-2.211c.137-.478.051-.729-.541-.729h-5.4l-.843 2.94c-.137.478-.051.729.541.729z" transform="translate(-121.638 -.012)"/><path d="m271.1 5.538c.233-1.014 1.162-4.126 1.612-5.333 2.906-.057 6.644-.057 7.39-.034 2.239.069 2.974 1.117 2.587 2.6a6.771 6.771 0 0 1 -.245.763h-2.544l.16-.559c.137-.478.051-.729-.565-.729h-4.821l-.872 3.043c-.137.478-.04.729.553.729h4.08a.863.863 0 0 0 .963-.729l.217-.758h2.587l-.302 1.076c-.416 1.453-1.675 2.541-3.989 2.61-.758.023-3.219.023-3.863 0-2.248-.081-3.313-1.095-2.948-2.679z" transform="translate(-244.469 -.14)"/><path d="m394.706 4.629c.382-1.334.763-2.655 1.18-3.989h2.61l-1.111 3.887h.046a1.641 1.641 0 0 1 1.584-1h.411l3.708-2.886h3.237c-1.5 1.231-3.112 2.507-4.827 3.806 1 1.345 2.085 2.815 3.077 4.171h-3.111l-2.228-2.929h-2.233l-.838 2.929h-2.611c.348-1.334.724-2.656 1.106-3.989z" transform="translate(-355.027 -.576)"/><path d="m528.009.075c2.245.074 2.934 1.185 2.752 2.132a2.8 2.8 0 0 1 -.131.467h-2.61l.012-.046c.142-.49-.1-.6-.559-.6h-4.649l-.137.365c-.2.518.427.661 1.077.661h3.977c2.439 0 2.616 1.618 2.4 2.565a3.554 3.554 0 0 1 -3.624 2.53c-.656.023-3.881.023-4.616 0-2.256-.069-3.442-.911-2.968-2.553a1.363 1.363 0 0 1 .069-.2h2.622l-.1.354c-.069.251.006.387.336.387h4.912a.689.689 0 0 0 .695-.524c.091-.319-.051-.5-.4-.5h-4.251c-2.838 0-3.083-1.607-2.792-2.61a19.629 19.629 0 0 1 .838-2.371c2.879-.069 6.438-.08 7.147-.057z" transform="translate(-467.983 -.057)"/><path d="m659.184 4.857c.324-1.14.324-1.14.61-2.051-1.379 0-2.371 0-3.863-.034l.608-2.132h10.382l-.609 2.132c-1.607.034-2.815.034-4.114.034h-.421l-.012.045a.68.68 0 0 1 .4.889l-.32 1.117c-.382 1.334-.695 2.427-1.146 3.761h-2.53c.32-1.334.631-2.428 1.015-3.761z" transform="translate(-591.648 -.576)"/><path d="m739.847.64h1.891c1 2.142 2.4 5.3 3.527 7.977h-3.071l-.49-1.162h-5.481l-1.156 1.162h-3.317c2.62-2.586 5.59-5.56 8.097-7.977zm-2.154 5.14.023.034a1.453 1.453 0 0 1 1.008-.382h2.308l-.843-1.966h-.154z" transform="translate(-660.038 -.576)"/><path d="m881.355 4.629c.382-1.334.763-2.655 1.18-3.989h10.473c-.137.593-.211.889-.61 2.28a2.553 2.553 0 0 1 -1.636 1.891 1.389 1.389 0 0 1 .781 1.778c-.177.6-.411 1.425-.593 2.029h-2.6l.421-1.482c.12-.411 0-.672-.661-.672h-4.638l-.615 2.154h-2.61c.353-1.334.725-2.656 1.108-3.989zm2.592.354a1.643 1.643 0 0 1 1.407-.662h3.2a.964.964 0 0 0 .963-.775l.211-.741h-5.208l-.62 2.176h.045z" transform="translate(-793.984 -.576)"/><path d="m1062.116 8.069c-2.151-.07-3.143-1.136-2.755-2.61.333-1.273.934-3.152 1.675-5.4 2.857-.066 6.657-.079 7.376-.045 2.107.1 3.148 1.1 2.751 2.61a23.378 23.378 0 0 1 -.881 2.837 3.837 3.837 0 0 1 -3.871 2.61c-.7.023-3.588.023-4.295 0zm4.44-1.513a1.866 1.866 0 0 0 1.944-1.356l.718-2.319c.263-.858-.092-1.357-1.107-1.357h-5.672l-1.139 3.676c-.264.858.092 1.357 1.106 1.357z" transform="translate(-955.468 .006)"/><path d="m1191.54 8.627c.375-1.334.781-2.656 1.194-3.989s.824-2.655 1.274-3.989h9.992c-.178.725-.281 1.07-.694 2.4a3.147 3.147 0 0 1 -1.588 1.925 1.284 1.284 0 0 1 .678 1.653c-.186.6-.429 1.392-.626 2h-1.833l.531-1.721c.183-.584-.08-.961-.874-.961h-5.4l-.829 2.683zm2.95-3.554a1.871 1.871 0 0 1 1.466-.578h3.691a1.562 1.562 0 0 0 1.709-1.2l.357-1.162h-6.347l-.908 2.937z" transform="translate(-1074.768 -.585)"/><path d="m1324.8 4.629c.413-1.334.824-2.655 1.274-3.989h1.8c-.375 1.334-.788 2.655-1.2 3.989s-.818 2.656-1.268 3.989h-1.8c.379-1.334.785-2.656 1.194-3.989z" transform="translate(-1193.895 -.576)"/><path d="m1379.915.1c2.79-.066 6.65-.069 7.369-.045 2.1.067 2.864 1.066 2.513 2.347l-.08.273h-1.9l.019-.053c.2-.655.01-1.1-1-1.1h-5.558l-1.169 3.749c-.264.858.106 1.357 1.112 1.357h3.814a2.053 2.053 0 0 0 2.1-1.41l.24-.78h-.031a1.669 1.669 0 0 1 -1.376.5h-.41c-.646 0-1.509 0-2.884-.034l.427-1.4c1.395-.034 2.346-.034 2.992-.034h3.442l-.628 2.043c-.452 1.472-1.682 2.541-3.874 2.61-.712.023-3.415.023-4.1 0-2.138-.072-3.147-1.127-2.753-2.628.327-1.264.942-3.127 1.735-5.385z" transform="translate(-1243.04 -.038)"/><path d="m1509.4 4.629c.413-1.334.824-2.655 1.274-3.989h1.8c-.375 1.334-.788 2.655-1.2 3.989s-.818 2.656-1.268 3.989h-1.8c.379-1.334.785-2.656 1.194-3.989z" transform="translate(-1360.404 -.576)"/><path d="m1555.49 8.617c.375-1.334.781-2.655 1.194-3.989s.824-2.656 1.274-3.989h1.654l5.119 6.195.036-.025a1.185 1.185 0 0 1 -.07-.944l1.62-5.224h1.818c-.375 1.334-.788 2.655-1.2 3.989s-.818 2.655-1.267 3.989h-1.654l-5.112-6.2-.04.025a1.1 1.1 0 0 1 .1.841l-1.65 5.336z" transform="translate(-1403.05 -.576)"/><path d="m1678.42 8.617c2.617-2.62 5.523-5.545 8.021-7.977h1.811c.953 2.358 2.1 5.3 3.086 7.977h-2.038l-.556-1.535h-6.562l-1.5 1.535zm4.788-2.606.02.025a2.092 2.092 0 0 1 1.308-.419h3.7l-1.188-3.3h-.215z" transform="translate(-1513.933 -.576)"/><path d="m1829.26 8.617c.375-1.334.781-2.655 1.194-3.989s.824-2.656 1.274-3.989h1.818l-2.2 7.085h.031a1.729 1.729 0 0 1 1.488-.641h1.208c1.511 0 2.89 0 4.4.034l-.461 1.5z" transform="translate(-1649.99 -.576)"/></g></svg>