<?xml version="1.0" encoding="utf-8"?>
<!-- Generator: Adobe Illustrator 27.3.1, SVG Export Plug-In . SVG Version: 6.00 Build 0)  -->
<svg version="1.1" id="Layer_1" xmlns="http://www.w3.org/2000/svg" xmlns:xlink="http://www.w3.org/1999/xlink" x="0px" y="0px"
	 viewBox="0 0 285.81 152.7" style="enable-background:new 0 0 285.81 152.7;" xml:space="preserve">
<path d="M95.1,53.97c-0.83,0.08-1.48,0.21-2.11,0.18c-2.16-0.1-4.34-0.13-6.48-0.43c-2.92-0.41-5.74-1.22-8.28-2.83
	c-4.29-2.72-6.69-6.62-7.36-11.6c-0.81-6.06,0.49-11.65,4.22-16.52c2.81-3.68,6.65-5.92,11.05-7.23c3.49-1.04,7.09-1.49,10.71-1.91
	c4.05-0.47,8.08-1.15,12.11-1.75c0.81-0.12,1.62-0.27,2.43-0.41c2.85-0.46,4.16-2.96,4.16-5.23c0-0.85-0.03-1.76,0.26-2.53
	c0.22-0.58,0.83-1.24,1.41-1.42c0.91-0.29,1.83,0.06,2.43,0.92c0.95,1.34,0.95,2.89,0.98,4.43c0.14,6.8-5.51,10.53-10.55,11.24
	c-1.73,0.24-3.41,0.77-5.13,1.04c-2.58,0.4-5.18,0.65-7.76,1.02c-4.6,0.66-9.18,1.45-13.06,4.25c-3.93,2.83-6.08,6.7-5.96,11.59
	c0.08,3.58,3.02,7.12,6.89,8.46c3,1.04,6.03,0.86,9.05,0.13c2.42-0.58,4.8-1.39,7.25-1.83c4.38-0.79,8.79-1.59,13.22-1.98
	c5.25-0.46,10.54-0.54,15.81-0.7c4.35-0.13,8.72,0.02,13.07-0.24c3.24-0.19,6.47-0.79,9.68-1.31c3.28-0.53,6.52-1.24,9.81-1.71
	c0.98-0.14,1.46-0.73,1.99-1.32c2.91-3.27,5.79-6.58,8.67-9.87c0.41-0.47,0.77-0.98,1.19-1.43c0.72-0.78,0.65-1.66,0.41-2.59
	c-0.39-1.56-0.19-2.08,1.18-2.9c1.27-0.76,2.58-1.45,4.12-0.61c1.28,0.69,2.78,1.03,3.61,2.4c4.03-0.34,8.02-0.2,11.98,0.75
	c2.01,0.48,3.07,1.59,3.26,3.63c0.08,0.85,0.1,1.77,0.46,2.5c0.35,0.72,1.06,1.29,1.69,1.84c0.75,0.65,1.59,1.2,2.38,1.82
	c1.32,1.05,1.61,2.53,0.76,4.27c-0.52,1.06-1.07,2.04-0.99,3.3c0.03,0.42-0.38,0.92-0.69,1.31c-0.38,0.48-0.83,0.94-1.33,1.28
	c-0.4,0.28-0.92,0.51-1.39,0.52c-1.2,0.02-2.42-0.04-3.61-0.18c-1.65-0.18-3.12,0.18-4.41,1.23c-1.92,1.56-4.03,2.96-5.71,4.75
	c-1.45,1.54-2.45,3.5-3.05,5.64c-1.31,4.63-2.74,9.24-4.15,13.84c-0.18,0.6-0.09,0.92,0.39,1.31c3.55,2.91,7.07,5.85,10.6,8.79
	c1.91,1.59,3.81,3.19,5.75,4.75c2.88,2.32,4.74,5.24,5.58,8.88c0.57,2.46,1.41,4.85,2.13,7.27c0.37,1.25-0.23,2.25-1.53,2.36
	c-1.46,0.12-2.79-0.17-3.74-1.49c-0.7-0.98-1.51-1.87-2.3-2.79c-1.1-1.29-1.19-2.9-1.38-4.45c-0.19-1.57-0.87-2.57-2.3-3.45
	c-3.75-2.32-7.99-3.44-11.95-5.22c-3.75-1.69-7.53-3.29-11.31-4.88c-0.41-0.17-0.95-0.19-1.39-0.11c-1.82,0.31-3.63,0.68-5.44,1.05
	c-0.53,0.11-0.87,0.36-0.97,1c-0.49,3.21-1.06,6.42-1.59,9.63c-0.59,3.58-1.07,7.19-1.79,10.74c-0.36,1.78-0.01,2.96,1.47,4.06
	c1.02,0.76,1.79,1.89,2.59,2.92c0.64,0.83,0.58,1.74-0.09,2.56c-0.55,0.67-1.17,1.27-1.69,1.96c-0.56,0.74-1.17,0.64-1.78,0.17
	c-2.15-1.67-4.35-3.28-6.39-5.08c-0.65-0.58-1.04-1.65-1.19-2.55c-0.34-2.06-0.6-4.16-0.65-6.25c-0.14-5.84-0.16-11.69-0.24-17.53
	c-0.02-1.56-0.09-1.68-1.63-2.11c-4.61-1.28-9.19-2.67-13.84-3.76c-3.16-0.74-3.1-0.82-3.04,2.24c0.03,1.86-0.09,3.72,0.03,5.57
	c0.22,3.57-0.54,7-1.3,10.45c-0.5,2.25-0.73,4.57-0.97,6.87c-0.05,0.45,0.24,1.09,0.59,1.41c2.04,1.84,3.67,4.01,5.22,6.26
	c1,1.44,0.42,3.46-1.25,3.96c-1.83,0.55-3.64,0.65-5.22-0.82c-0.7-0.65-1.49-1.24-2.33-1.7c-2.74-1.52-4.36-3.95-5.83-6.61
	c-0.83-1.51-1.15-3.04-1.19-4.71c-0.12-5.03-0.57-10.03-2.49-14.73c-1.04-2.55-2.46-4.95-3.71-7.42c-0.38-0.76-0.74-0.76-1.21-0.05
	c-2.88,4.32-6.21,8.28-9.82,12c-1.54,1.59-3.4,2.87-5.12,4.29c-1.95,1.62-3.91,3.25-5.86,4.87c-1.04,0.87-0.37,1.88-0.1,2.75
	c0.74,2.31,2.18,4.1,4.31,5.32c0.86,0.49,1.7,1.05,2.51,1.63c1.46,1.05,1.51,3.01,0.15,4.17c-1.78,1.52-3.75,1.81-5.84,0.82
	c-0.58-0.27-1-0.9-1.45-1.41c-2.48-2.81-5.25-5.45-6.54-9.07c-0.95-2.66-1.58-5.43-2.18-8.2c-0.13-0.61,0.31-1.52,0.78-2.04
	c2.03-2.27,3.14-5.05,4.56-7.67c2.49-4.59,3.95-9.53,4.93-14.62c0.17-0.88,0.28-1.79,0.25-2.67c-0.16-3.61,1-6.97,1.96-10.36
	C94.6,55.42,94.82,54.81,95.1,53.97 M133.07,43.98c-1.37,0-4.93-0.09-5.05-0.02c-0.34,0.19-0.68,0.4-0.94,0.68
	c-1,1.03-2.41,1.7-3.62-0.17c-0.24-0.37-0.73-0.82-1.11-0.83c-2.1-0.02-4.21,0.08-6.31,0.19c-0.22,0.01-0.55,0.34-0.61,0.58
	c-0.26,0.95-0.36,1.94-0.65,2.89c-0.34,1.15-1.18,1.48-2.14,0.77c-0.67-0.49-1.32-1.16-1.68-1.9c-0.21-0.44,0.17-1.17,0.33-1.98
	c-0.75,0.05-1.53-0.04-2.18,0.21c-0.38,0.14-5.06,1.41-6.81,3.14c-0.33,0.32-0.66,0.66-0.96,1.03c-0.78,0.99-0.76,1.65-0.03,2.65
	c0.4,0.56,0.82,1.11,1.14,1.72c0.71,1.34,0.23,2.19-1.25,2.29c-0.27,0.02-0.53,0.13-0.79,0.19c-0.79,0.17-1.59,0.33-2.68,0.56
	c-2.02,4.11-2.47,9-3.51,13.96c0.48-0.24,0.76-0.42,1.06-0.53c0.37-0.13,0.94-0.41,1.09-0.27c0.33,0.31,0.66,0.87,0.62,1.29
	c-0.19,1.64-1.83,2.69-3.5,2.29c-0.2,0.76-0.41,1.51-0.57,2.27c-0.04,0.18,0.07,0.49,0.22,0.59c1.03,0.71,0.48,1.57,0.14,2.29
	c-0.15,0.33-0.8,0.43-1.23,0.63c-2.48,3.98-4.15,8.54-7.07,12.41c-1.11,1.47-1.06,3.18-0.71,4.76c1.12,5.1,3.62,9.47,7.38,13.1
	c0.17,0.16,0.42,0.23,0.72,0.39c0.25-1.57,0.34-2.9-1.03-3.88c-0.32-0.23-0.57-0.61-0.77-0.97c-0.56-0.98-1.19-1.78-2.34-2.23
	c-1-0.38-1.52-1.8-1.35-2.79c0.15-0.85,0.66-1.31,1.6-1.31c-0.38-0.9-0.09-1.52,0.57-2.05c1.05-0.82,2.08-1.68,3.12-2.51
	c2.03-1.62,4.11-3.19,6.1-4.87c0.7-0.59,1.21-1.42,1.83-2.17c-1.39-0.56-1.89-1.65-2.39-2.73c-0.1-0.22,0-0.66,0.17-0.85
	c0.75-0.86,2.95-0.75,3.52,0.19c0.22,0.37,0.76,1.04,0.35,1.4c4.23-3.77,6.21-7.35,9.52-12.06c0.79-1.12,1.67-2.01,3.16-1.97
	c1.2,0.03,2.4,0.02,3.6,0.04c0.89,0.02,1.79,0.01,2.67,0.12c3.38,0.41,6.76,0.87,10.14,1.31c1.32,0.17,2.65,0.26,3.96,0.5
	c2.23,0.41,4.45,0.92,6.67,1.37c3.11,0.64,10.23,3.02,10.74,2.94c0.97-0.15,0.65,4.97,0.54,5.19c0.79,0.27,1.4,0.36,1.86,0.67
	c0.55,0.38,0.82,0.92,0.41,1.68c-0.51,0.97-1.33,1.06-2.23,1.05c-0.07,0.39-0.21,0.76-0.2,1.13c0.04,3,0.07,6,0.17,8.99
	c0.1,3.24,0.26,6.48,0.42,9.72c0.01,0.29,0.11,0.67,0.31,0.84c1.66,1.42,3.35,2.81,5.2,4.34c0.1-0.65,0.15-1.01,0.21-1.37
	c0.29-1.71,0.25-1.74-1.24-2.59c-0.38-0.22-0.8-0.6-0.92-1c-0.2-0.67-0.18-1.42-0.26-2.17c-0.98,0.14-1.53-0.49-1.58-1.28
	c-0.07-1.14,1.03-1.04,1.78-1.21c0.04-0.4,0.08-0.76,0.12-1.11c-1.07-0.22-1.81-0.83-2.11-1.84c-0.08-0.27,0.17-0.9,0.36-0.95
	c0.67-0.15,1.39-0.12,2.22-0.16c0.12-0.65,0.3-1.55,0.49-2.54c-1.01,0.39-1.74,0.05-2.33-0.59c-0.17-0.19-0.21-0.56-0.2-0.83
	c0-0.08,0.07-2.25,0.08-2.42c0.01-0.29,0.25-0.8,0.41-0.81c0.57-0.02,1.18,0.06,1.72,0.25c0.24,0.08,0.75,0.65,0.88,0.57
	c0.17-1.38,0.35-2.76,0.48-4.14c0.02-0.21-0.17-0.48-0.33-0.67c-0.43-0.51-0.96-0.95-1.34-1.49c-0.42-0.6,0.57-2.56,1.09-2.71
	c0.25-0.07,0.58,0.12,0.92,0.2c0.18-0.99,0.35-1.8-0.96-2.17c-0.68-0.19,0.24-4.4,4.64-4.34c1.22,1.33,0.69,1.99,0.57,3.04
	c0.1-0.04,0.29-0.11,0.49-0.17c0.16-0.05,0.33-0.08,0.5-0.12c3.26-0.8,6.33-2.01,8.43-4.78c1.27-1.67,2.63-3.41,3.37-5.33
	c1.68-4.39,2.95-8.94,4.51-13.38c0.64-1.82,1.43-3.63,2.47-5.24c2.11-3.28,5.28-5.56,8.24-8.01c0.54-0.44,1.18-0.95,1.83-1.04
	c2.2-0.3,2.19-0.22,1.6-2.31c-0.1-0.36-0.01-0.78-0.01-1.17c0.4,0.13,0.86,0.18,1.17,0.42c1.1,0.83,2.09,1.81,3.22,2.58
	c1.28,0.87,2.1,0.42,2.42-1.08c0.25-1.21-0.67-1.29-1.68-1.57c0.6-0.78,1.09-1.46,1.62-2.11c0.1-0.12,0.37-0.09,0.55-0.13
	c0.41-0.1,0.82-0.21,1.24-0.31c-0.22-0.36-0.42-0.74-0.66-1.09c-0.09-0.13-0.27-0.2-0.41-0.31c-2.12-1.59-4.35-3.15-4.51-6.14
	c-0.08-1.38-0.93-1.95-2.04-2.2c-2.77-0.61-5.55-1.25-8.36-1.61c-1.2-0.15-2.49,0.34-3.72,0.61c-0.91,0.2-1.81,0.5-2.7,0.79
	c-1,0.32-1.37-0.48-1.6-1.07c-0.16-0.42,0.13-1.06,0.32-1.56c0.12-0.29,0.44-0.5,0.73-0.81c-0.28-0.12-0.48-0.24-0.7-0.3
	c-0.9-0.22-1.89-0.57-2.64,0.18c-0.8,0.81-0.29,1.82,0.12,2.6c0.58,1.09,0.11,1.76-0.63,2.4c-1.19,1.04-2.01,0.85-2.51,2.4
	c-0.09,0.27,0.73-0.04,2.32,0.43c1.6,0.47,0.34,3.25-1.71,4.17c-1.39,0.63-2.16,0.31-3.09-1.32c-1.69,2.33-3.45,4.59-5.02,6.98
	c-0.76,1.15-1.59,2.08-2.74,2.57c-0.36,0.15-4.04,0.28-4.57,0.7 M158.95,40.87c1.56,4.1-2.98,3.42-3.93,1.27
	c-0.68,0.05-2.59,0.7-3.31,0.75c0.15,0.44,0.95,1.59,0.91,1.95c-0.05,0.53-0.2,1.35-0.54,1.5c-0.95,0.41-2.01,0.67-3.04,0.72
	c-0.55,0.02-1.27-0.4-1.64-0.85c-0.45-0.53-0.94-2.25-1.18-2.83l-7.26,0.58c0.37,0.99-2.26,1.88-3.19,2.16
	c-0.26,0.08-0.5,0.23-0.73,0.38c-1.19,0.76-1.25,0.79-1.78-0.51c-0.21-0.51-0.12-1.14-0.18-2.02 M131.14,110.25
	c0-0.58,0.06-0.96-0.01-1.31c-0.4-2.03-1.05-4.02-2.69-5.32c-1.64-1.3-1.65-2.95-1.49-4.65c0.17-1.68,0.64-3.34,0.97-4.95
	c-0.75,0.15-1.17,0.4-1.8,0.2c-0.69-0.21-0.97-0.41-1.34-1.08c-0.53-0.93,0.79-2.73,1.82-2.87c1.03-0.14,1.93-0.24,2.27,0.21
	c0.26-1.74,0.5-3.28,0.74-4.85c-1.41-0.14-2.44-2.12-2.28-3.32c0.05-0.41,1.57-2.74,1.64-2.68c-0.05-0.29-0.11-0.58-0.18-0.97
	c-1.49-0.21-2.07-0.79-1.17-3.07c-0.21,0.54-2.3-0.22-2.88-0.5c-0.25,0.49,1.29,1.26,0.04,1.45c-1.89,0.51-1.75-0.42-2.04-1.08
	c-0.41-0.96-4.82,1.17-4.82,1.17c-0.3,0.11-0.61,0.21-0.99,0.35c0.08,0.28,0.13,0.54,0.23,0.78c0.42,1.01,0.95,2,1.25,3.04
	c1.57,5.39,2.69,10.84,2.81,16.5c0.04,2.03,0.01,4.11,1.52,5.94c2.09,2.52,4.23,4.91,7.15,6.47
	C130.21,109.9,130.59,110.02,131.14,110.25 M186.93,78.84c-0.41,0.86-4.93-1.39-4.2-3.03c-0.55-0.42-1.2-0.91-1.63-1.25
	c-1.11,0.69-2.08,1.29-3.06,1.88c-0.09,0.05-0.28,0.01-0.39-0.06c-0.77-0.45-1.02-1.97-0.42-2.68c0.35-0.42,0.79-0.76,1.18-1.14
	c-1.56-1.2-1.72-1.22-2.56-0.21c-1.44,1.74-2.87,3.5-4.28,5.22c4.71,2.3,9.47,4.67,14.27,6.95c2.85,1.36,5.73,2.65,8.65,3.84
	c0.69,0.28,0.94,0.6,1.1,1.25c0.42,1.69,0.89,3.37,1.41,5.03c0.1,0.34,0.43,0.75,0.75,0.85c0.71,0.23,1.47,0.33,2.22,0.42
	c0.61,0.07,0.96-0.18,0.74-0.85c-0.19-0.59-0.46-1.15-0.62-1.74c-0.16-0.56-0.46-0.8-1.04-0.7c-1,0.17-1.74-0.39-2.11-1.15
	c-0.36-0.74,0.24-1.4,0.81-1.94c0.34-0.33,0.97-0.65,0.45-1.23c-0.55-0.62-0.73-1.77-1.98-1.53c-0.97,0.19-2.18-0.45-2.21-1.37
	c-0.05-1.64-1.12-2.37-2.28-3.11c-0.54,1.16-1.36,1.62-2.34,1.33c-1.21-0.37-0.83-1.29-0.79-2.13
	C188.67,80,188.74,79.78,186.93,78.84 M80.82,25.45c3.09-2.73,6.49-4.38,9.9-5.37c-0.02-0.81-0.26-0.87-0.09-1.49
	c0.1-0.36,0.25-0.79,1.09-1.13c1.11-0.45,1.7-0.9,3.17,0.06c0.94,0.61-0.29,1.84,1.97,1.41c0.35-0.07,0.73-0.08,1.12-0.12
	c-1.12-1.43-1.16-1.46-0.35-2.4c0.23-0.27,0.88-0.54,1.08-0.42c0.32,0.21,0.55,0.74,0.58,1.14c0.03,0.47-0.22,0.96-0.37,1.54
	c2.08-0.24,4.06-0.46,6.03-0.71c0.16-0.02,0.38-0.31,0.4-0.49c0.17-1.27,0.73-1.16,1.82-1.33c0.57-0.03,0.87,0.03,1.04,0.29
	c0.13,0.2,0.1,0.51,0.14,0.83c2.17-0.3,4.1-1.03,5.93-2.1c2.3-1.36,2.28-1.45,2.24-4.69c-0.91,0.71-1.76,1.53-2.75,2.11
	c-0.84,0.49-1.45,0.95-1.5,2.02c-0.02,0.39,0.07,0.88-0.77,1.15c-1.06-0.03-1.08-0.18-1.29-1.07c-0.04-0.16-0.09-0.37-0.15-0.64
	c-2.25,0.32-4.46,0.64-6.4,0.91c0,0.68,0.26,1.54-0.06,1.92c-0.56,0.66-2.18,0.51-2.38-0.09c-0.16-0.48,0.04-1.07,0.07-1.57
	c-4.43,0.37-9.15,0.72-13.62,2.1c0.08,0.63,0.26,1.19,0.21,1.72c-0.11,0.94-0.56,1.69-1.6,1.88c-0.83,0.15-1.66,0.35-2.22-0.61
	c-0.65-1.11-1.47-1.28-2.53-0.58c-0.43,0.29-0.84,0.61-1.26,0.9c-3.77,2.58-6.27,6-7.01,10.58c1.49-0.35,2.05-0.48,2.52-0.21
	c0.28,0.16,0.53,0.46,0.93,0.95c0.72-1.48,1.46-2.99,2.21-4.54c-0.21-0.02-0.44,0-0.62-0.07c-0.82-0.36-1.49-0.83-1.47-1.89
	c0.03-0.97,0.63-1.27,1.43-1.47c0.32-0.08,0.6-0.31,0.91-0.46c0.27-0.14,0.67-0.43,0.81-0.35c0.35,0.22,0.65,0.58,0.83,0.96
	C80.92,24.42,80.82,24.81,80.82,25.45 M92.99,52.02c0.44-0.06,2.32-0.07,2.74-0.18c0.38-0.11,0.9-0.23,1.06-0.51
	c0.97-1.72,1.86-3.5,2.86-5.39c-0.91,0.3-1.76,0.58-2.27,0.74c-0.07,0.8,0.02,1.39-0.2,1.83c-0.16,0.33-0.69,0.59-1.09,0.65
	c-1.16,0.18-1.45-0.79-1.79-1.52c-2.47,0.11-5.46,0.43-7.68-0.04c-1.67-0.35-6-1.39-9.24-6.1c0.11,0.15-0.05,0.32-0.09,0.44
	c-0.15,0.39-3.64,0.93-3.71,1.04c0.37,0.5,2.13,3.12,2.49,3.51c0.47,0.51,1,0.98,1.49,1.46c0.65-0.99,1.48-1.19,2.41-0.93
	c0.82,0.23,1.07,0.92,0.83,1.63c-0.3,0.89,0.13,1.32,0.81,1.57c1.48,0.53,2.98,0.99,4.48,1.46c1.11,0.35,0.85-3.08,2.04-3.08
	C89.78,48.59,93.23,50.77,92.99,52.02 M76.37,34.98c-3.12-0.95-4.57-2.33-3.64,5.18c-0.22-1.75,2.76-0.97,4.06-0.23
	C76.65,38.33,76.51,36.7,76.37,34.98"/>
<path d="M112.63,57.29c-2.12-0.37-3.35-1.6-2.35-3.79c0.15-0.34,0.24-0.72,0.28-1.09c0.21-1.89,1.69-3.02,3.59-2.79
	c2,0.24,4.09,2.81,3.64,4.49c-0.19,0.69-0.64,1.67-1.16,1.81"/>
<path d="M133.33,57.2c-1.39-0.54-2.13-1.84-2.32-3.18c-0.15-1.13,0.34-2.22,1.54-2.98c2.22-1.42,3.86-0.75,5.25,0.78
	c0.89,0.98,1.03,2.47,0.36,3.49"/>
<path d="M161.41,62.29c0,0-3.73-0.53-4.21-1.73c-0.41-1.02,0.13-2.59,1.12-3.32c0.98-0.72,2.14-0.83,3.2-0.29
	c0.73,0.37,1.38,0.99,1.91,1.62c0.53,0.64,0.37,2.25-0.3,2.73"/>
<path d="M105.55,63.78c-0.08,0.11-0.55,0.03-0.81-0.07c-1.59-0.57-1.95-2.17-0.81-3.42c0.23-0.25,0.44-0.53,0.58-0.83
	c0.95-2.01,2.89-2.65,4.78-1.52c0.29,0.17,0.59,0.39,0.77,0.67c1.2,1.93-0.6,5.43-3.08,5.74"/>
<path d="M166.45,55.33c-0.86,0.54-2.16,0.37-2.81-0.34c-0.43-0.47-0.76-1-1.09-1.52c-0.47-0.72-0.19-1.46,0.54-1.89
	c1.14-0.68,2.44-1.25,3.78-1.71c0.95-0.32,2.11,0.36,2.06,1.17c-0.05,0.85,0.07,1.86-0.12,2.71"/>
<path d="M180.03,35.56c0,0.6-3.18,3.03-3.67,3.02c-0.92-0.01-1.95-0.73-2.25-1.57c-0.24-0.68,0.05-1.42,0.75-1.93
	c0.57-0.42,1.14-0.83,1.71-1.25c0.5-0.36,2.03-0.5,2.62,0.02"/>
<path d="M147.54,68.68c-0.44,0.79-2.18,1.51-3,1.24c-0.87-0.28-1.62-1.53-1.54-2.55c0.01-0.14-0.03-0.32,0.05-0.4
	c0.94-1.08,1.83-2.23,2.87-3.2c0.63-0.58,2.38-0.13,3.01,0.59c0.68,0.78,0.66,1.84-0.06,2.87"/>
<path d="M156.69,53.73c-0.48,0.2-5.81-0.63-5.97-0.88c-0.32-0.49-0.42-1.29-0.3-1.87c0.18-0.87,0.61-1.69,0.98-2.5
	c0.51-1.13,1.35-1.59,2.62-1.15c0.54,0.19,1.1,0.36,1.66,0.4c2.22,0.16,3.18,1.51,2.52,3.65"/>
<path d="M140.1,55.2c-0.08-0.26-0.18-0.51-0.3-0.76c-0.33-0.72,0.12-1.29,0.63-1.41c1.43-0.35,2.9-0.71,4.39-0.26
	c0.94,0.28,1.56,1.49,1.23,2.54c-0.5,1.58-1.55,2.68-3.14,3.19c-1.04,0.34-1.79-0.12-2.27-1.36"/>
<path d="M166.38,63.16c0.24-0.09,0.61-0.06,0.82,0.1c0.64,0.47,0.92,1.16,0.7,1.97c-0.4,1.48-1.35,2.42-2.74,2.82
	c-1.01,0.29-2.1-1.2-1.79-2.47c0.14-0.57,0.41-1.11,0.64-1.66"/>
<path d="M125.35,54.56c-0.03,1.87-1.78,3.8-3.46,3.99c-1.05,0.12-1.87-0.49-2.18-1.6c-0.34-1.25-0.02-2.16,1.02-2.59
	c0.97-0.4,2-0.59,2.75-1.48c0.39-0.47,1.56,0.22,1.8,1.01C125.36,54.15,125.34,54.44,125.35,54.56"/>
<path d="M105.37,69.36c0.01-1.04,0.65-1.68,1.81-2.08c0.64-0.22,1.26-0.6,1.79-1.01c0.69-0.54,1.92-0.07,2.16,0.96
	c0.5,2.15-1.86,4.57-3.86,4.6C106.24,71.84,105.35,70.58,105.37,69.36"/>
<path d="M106.04,54.19c-0.9,0-1.66-0.65-1.9-1.6c-0.3-1.19,0.03-2.14,0.95-2.56c0.98-0.45,2.04-0.61,2.84-1.52
	c0.54-0.61,1.87,0.5,1.96,1.62C110.03,51.87,107.82,54.2,106.04,54.19"/>
<path d="M137.79,64.04c0-1.23,0.48-1.78,1.78-2.16c0.51-0.15,1.07-0.33,1.46-0.67c0.47-0.42,0.9-0.85,1.52-0.48
	c0.68,0.41,1.12,1.05,1.02,1.89c-0.2,1.7-1.86,3.46-3.53,3.79C138.9,66.64,137.79,65.46,137.79,64.04"/>
<path d="M103.27,66.96c-0.24,0.87-0.49,1.38-1.32,1.5c-0.64,0.09-1.27,0.26-1.87,0.48c-1.04,0.39-2.26-0.19-2.82-1.41
	c-0.49-1.06-0.21-1.69,0.92-2.34c0.62-0.35,1.17-0.86,1.79-1.21c0.32-0.18,0.98-0.34,1.09-0.2
	C101.85,64.81,102.54,65.9,103.27,66.96"/>
<path d="M169.62,42.33c-1.3,0.01-2.55-1.12-2.47-2.27c0.03-0.47,0.35-1.04,0.72-1.36c0.67-0.58,1.43-1.08,2.22-1.47
	c0.33-0.16,1.04-0.15,1.22,0.08c0.63,0.76,1.2,1.6,1.62,2.49c0.53,1.14,0.02,1.78-1.19,1.93C170.98,41.83,170.24,42.15,169.62,42.33
	"/>
<path d="M128.21,51.28c-1.21-0.02-2.21-0.81-2.44-1.83c-0.23-1.05,0.24-1.67,1.21-2.09c0.59-0.25,1.1-0.7,1.6-1.12
	c0.56-0.47,1.07-0.5,1.48,0.12c0.54,0.83,1.16,1.64,1.51,2.55c0.42,1.1-0.06,1.59-1.21,1.75C129.56,50.79,128.8,51.11,128.21,51.28"
	/>
<path d="M131.31,67.4c-1.05-0.62-2.18-1.21-2.02-2.69c0.04-0.41,0.37-0.86,0.7-1.14c0.6-0.5,1.33-0.85,1.95-1.33
	c0.73-0.56,1.32-0.53,1.81,0.28c0.58,0.98,1.63,1.78,1.34,3.11c-0.07,0.34-0.34,0.78-0.63,0.9"/>
<path d="M177.99,44.75c-0.33,0.21-0.96,0.3-1.29,0.13c-0.91-0.5-1.36-1.36-1.27-2.42c0.08-0.98,0.72-1.46,1.6-1.8
	c0.74-0.28,1.4-0.77,2.11-1.13c0.27-0.14,0.76-0.3,0.9-0.18c0.46,0.42,1.04,0.91,1.14,1.46c0.27,1.46-0.09,2.78-1.84,3.43"/>
<path d="M142.1,45.46c1.22-0.03,1.91,0.91,1.82,2.11c-0.07,0.93-0.42,1.86-0.73,2.76c-0.3,0.86-1.04,1.2-1.78,0.68
	c-0.76-0.53-1.35-1.32-2-2c-0.07-0.07-0.11-0.18-0.13-0.28C139.13,47.9,141.23,45.46,142.1,45.46"/>
<path d="M164.18,43.39c1.05,0.02,2.05,1.22,1.84,2.29c-0.16,0.83-0.39,1.66-0.64,2.47c-0.33,1.04-1.19,1.41-2.09,0.78
	c-0.68-0.48-1.19-1.2-1.77-1.82c-0.06-0.07-0.08-0.19-0.1-0.29C161.2,45.89,163.23,43.37,164.18,43.39"/>
<path d="M118.42,48.34c0.77-0.93,1.46-1.95,2.36-2.74c0.28-0.25,1.31-0.05,1.65,0.29c0.44,0.45,0.74,1.24,0.74,1.88
	c0,0.79-0.34,1.6-0.6,2.37c-0.33,1.03-1.12,1.31-2.09,0.79C119.49,50.42,118.57,49.21,118.42,48.34"/>
<path d="M126.01,60.75c-0.35-0.44-0.63-0.96-0.88-1.47c-0.4-0.8-0.06-1.34,0.65-1.77c0.55-0.33,1.08-0.71,1.59-1.09
	c1.04-0.78,2.51-0.4,2.82,0.87c0.36,1.46-0.22,2.82-0.89,4.1c-0.12,0.23-0.9,0.39-0.97,0.35"/>
<path d="M167.95,69.84c0.01-1.03,1.07-1.95,2.21-1.92c1.06,0.03,2.07,0.88,2.12,1.8c0.04,0.8-1.72,2.48-2.61,2.48
	C168.88,72.2,167.94,70.9,167.95,69.84"/>
<path d="M152.6,69.45c-1.01-0.01-1.77-0.66-1.68-1.51c0.14-1.31-0.01-2.8,1.45-3.62c0.77-0.43,1.48-0.39,2.03,0.28
	c0.44,0.54,0.9,1.11,0.36,1.93"/>
<path d="M164.4,69.39c0.87,0.01,1.89,0.94,1.88,1.71c-0.01,0.82-1.31,2.03-2.14,1.99c-1.39-0.06-2.05-0.54-2.01-1.47
	C162.17,70.49,163.31,69.37,164.4,69.39"/>
<path d="M99.53,78.77c0,1.66-0.48,2.38-1.54,2.42c-0.71,0.03-1.79-1.25-1.77-2.1c0.03-1.03,1.18-2.03,2.29-2.04
	C100.05,77.04,99.33,78.22,99.53,78.77"/>
<path d="M194.81,31.37c-1.32-1.14-2.69-2.24-3.96-3.44c-0.59-0.56-0.11-1.11,0.44-1.39c0.84-0.43,1.83-0.51,2.54,0.09
	c0.64,0.54,1,1.02,0.5,2.33c-0.1,0.25,0.04,0.62,0.14,0.9C194.63,30.31,195.06,31.01,194.81,31.37
	C194.72,31.43,194.89,31.31,194.81,31.37"/>
<path d="M153.84,57.84c-0.22,0.75-0.46,1.88-0.88,2.94c-0.35,0.88-1.18,1.25-1.94,0.59c-0.87-0.76-2.3-1.94-2.13-2.6
	c0.32-1.27,1.43-2.51,2.5-3.38C152.25,54.7,153.79,56.09,153.84,57.84"/>
<path d="M160.25,65.5c-0.24,0.86-0.39,1.53-0.64,2.16c-0.08,0.21-0.54,0.52-0.65,0.46c-0.64-0.31-1.34-0.63-1.8-1.13
	c-0.22-0.24-0.03-0.89,0.1-1.33c0.08-0.28,0.39-0.49,0.55-0.76c0.36-0.61,0.98-0.75,1.52-0.47
	C159.75,64.64,159.98,65.17,160.25,65.5"/>
<path d="M168.67,56.69c0.62,0.04,1.08,0.72,1.3,1.55c0.22,0.79-0.39,1.08-0.99,1.33c-0.32,0.14-0.61,0.31-0.93,0.45
	c-0.37,0.17-1.06,0.5-1.09,0.46c-0.35-0.61-0.79-1.25-0.84-1.92C166.06,57.75,167.46,56.67,168.67,56.69"/>
<path d="M100.74,71.03c0.72,0.15,1.28,0.67,1.49,1.5c0.19,0.76-0.15,1.24-0.93,1.44c-0.29,0.07-0.55,0.28-0.83,0.41
	c-0.41,0.18-1.13,0.58-1.2,0.48c-0.39-0.5-0.76-1.1-0.86-1.71C98.26,72.32,99.72,71,100.74,71.03"/>
<path d="M113.61,61.79c-1.32-1.39-1.35-2.49,0.07-3.49c0.44-0.31,1.28-0.5,1.68-0.28c0.52,0.29,0.85,1.01,1.1,1.62
	c0.08,0.2-0.25,0.72-0.53,0.89C115.2,61,114.39,61.37,113.61,61.79"/>
<path d="M183.24,37.09c-1.36-1.5-1.32-2.76,0.24-3.62c0.46-0.25,1.29-0.3,1.7-0.04c0.46,0.3,0.72,1.02,0.89,1.61
	c0.06,0.21-0.32,0.65-0.61,0.83C184.79,36.31,184.72,37.13,183.24,37.09"/>
<path d="M101.51,60.59c-1.41-1.28-1.43-2.27-0.04-3.45c1.09-0.93,2.63-0.4,2.81,1.03c0.05,0.38-0.23,0.95-0.54,1.18
	C103.06,59.85,102.26,60.19,101.51,60.59"/>
<path d="M169.51,48.33c-1.41-1.47-1.35-2.6,0.17-3.66c0.82-0.57,1.88-0.31,2.39,0.58c0.54,0.94,0.32,1.53-0.71,2.04
	C170.75,47.59,170.42,48.5,169.51,48.33"/>
<path d="M121.49,64.73c-1.43-1.38-1.42-2.57,0.16-3.59c0.43-0.28,1.27-0.35,1.68-0.1c0.46,0.28,0.83,1,0.89,1.56
	c0.04,0.33-0.57,0.79-0.97,1.08C122.7,64.08,122.33,64.75,121.49,64.73"/>
<path d="M94.75,84.08c-0.01,0.78-0.65,1.51-1.37,1.54c-0.81,0.04-2.15-1.11-2.14-1.85c0.01-0.83,0.88-1.81,1.62-1.84
	C93.54,81.91,94.76,83.3,94.75,84.08"/>
<path d="M88.14,88.49c0.65,0.06,1.15,0.45,1.19,1.25c0.04,0.84-0.82,2.06-1.4,2.04c-0.8-0.02-1.87-1.06-1.87-1.82
	C86.06,89.31,87.16,88.48,88.14,88.49"/>
<path d="M98.6,60.13c0.27,0.33,0.57,0.57,0.67,0.87c0.16,0.46,0.39,1.07,0.21,1.44c-0.23,0.5-1.99,0.53-2.38,0.17
	c-0.56-0.52-0.53-1.13,0.08-1.56c0.03-0.02,0.07-0.01,0.1-0.03C97.69,60.75,98.08,60.48,98.6,60.13"/>
<path d="M176.21,50.39c0,1.42-1.25,1.31-1.82,1.41c-0.73,0.12-1.37-0.74-1.21-1.32c0.15-0.56,0.91-1.11,1.52-1.34
	C174.94,49.04,175.79,49.37,176.21,50.39"/>
<path d="M123.79,88.46c-1.39-1.72-1.28-2.88,0.42-3.71c0.44-0.21,1.25-0.21,1.6,0.06c0.46,0.35,0.88,1.02,0.89,1.64
	c0,0.48-0.76,1.36-0.92,1.58C125.19,88.9,124.76,88.65,123.79,88.46"/>
<path d="M124.44,79.6c-0.25,0.9-0.39,1.58-0.64,2.21c-0.09,0.23-0.57,0.56-0.67,0.49c-0.63-0.37-1.28-0.77-1.75-1.31
	c-0.17-0.2,0.1-0.83,0.24-1.24c0.09-0.25,0.37-0.43,0.47-0.67c0.29-0.68,0.89-0.74,1.38-0.52C123.88,78.75,124.15,79.27,124.44,79.6
	"/>
<path d="M124.29,99.95c-0.25-1.02,0.66-0.92,1.23-0.94c0.99-0.02,0.71,0.94,0.77,1.44c0.05,0.4-0.32,1.05-0.69,1.26
	C125.2,101.94,124.3,100.73,124.29,99.95"/>
<path d="M180.22,80.05c-0.54-0.18-0.71-0.62-0.91-1.07c-0.09-0.2,0.32-0.63,0.53-0.94c0.07-0.1,0.24-0.14,0.35-0.21
	c0.96-0.62,1.96-0.12,2.04,1.06c0.01,0.22,0.21,0.8,0,0.91C181.81,80,180.91,79.85,180.22,80.05"/>
<path d="M281.39,149.63c-0.65,0.04-1.31,0.02-1.96,0c-1.72-0.05-3.45-0.02-5.17,0.03c-0.48,0.01-0.97,0.06-1.45,0.08
	c-0.14,0.01-0.29,0-0.44,0c-0.04,0-0.14-0.1-0.15-0.14c-0.09-0.33-0.08-0.67-0.09-1.01c0-0.07,0.02-0.14,0.03-0.21
	c0.01-0.05,0.09-0.14,0.14-0.15c0.35-0.08,0.71-0.15,1.07-0.18c0.32-0.03,0.62-0.1,0.93-0.17c0.12-0.03,0.23-0.08,0.34-0.13
	c0.26-0.13,0.4-0.35,0.46-0.62c0.03-0.14,0.04-0.29,0.05-0.43c0.08-0.97,0.11-1.94,0.11-2.91c-0.01-1.19-0.02-2.38-0.03-3.57
	c0-0.19-0.01-0.39-0.02-0.58c-0.01-0.1-0.03-0.19-0.06-0.28c-0.05-0.15-0.15-0.25-0.3-0.29c-0.11-0.03-0.24-0.05-0.36-0.06
	c-0.36-0.01-0.73-0.02-1.09-0.02c-2.06-0.01-4.12-0.02-6.19-0.02c-1.12,0-2.23,0.05-3.35,0.07c-0.24,0.01-0.49,0.02-0.72,0.07
	c-0.07,0.02-0.14,0.04-0.21,0.06c-0.12,0.04-0.2,0.14-0.22,0.26c-0.02,0.09-0.03,0.19-0.03,0.29c-0.03,1.09-0.02,2.18,0,3.27
	c0.02,0.87,0.05,1.75,0.07,2.62c0.01,0.36,0.05,0.73,0.15,1.08c0.03,0.12,0.07,0.23,0.12,0.34c0.13,0.3,0.36,0.52,0.65,0.65
	c0.2,0.09,0.4,0.17,0.62,0.21c0.36,0.05,0.72,0.11,1.08,0.15c0.22,0.03,0.43,0.05,0.64,0.13c0.07,0.03,0.12,0.09,0.14,0.16
	c0.02,0.09,0.04,0.19,0.04,0.29c0,0.24-0.03,0.48-0.07,0.72c-0.02,0.12-0.12,0.23-0.23,0.26c-0.1,0.02-0.19,0.04-0.29,0.06
	c-0.31,0.04-0.63,0.03-0.95,0.02c-0.61-0.01-1.21-0.03-1.82-0.04c-1.19-0.02-2.38-0.02-3.57,0.01c-0.51,0.01-1.02,0.03-1.52,0.1
	c-0.24,0.03-0.48,0.06-0.73,0.04c-0.08-0.01-0.19-0.1-0.21-0.18c-0.08-0.35-0.12-0.72-0.14-1.08c-0.01-0.18,0.07-0.29,0.22-0.32
	c0.02-0.01,0.05-0.01,0.07-0.01c0.26-0.05,0.52-0.1,0.79-0.15c0.19-0.04,0.38-0.09,0.56-0.15c0.23-0.08,0.44-0.2,0.61-0.38
	c0.14-0.14,0.25-0.3,0.31-0.49c0.09-0.28,0.15-0.56,0.15-0.86c0-0.58,0.01-1.17,0.01-1.75c0-2.52,0-5.05,0-7.57
	c0-1.5,0-3.01-0.01-4.51c0-0.19,0-0.39,0-0.58c0-0.34-0.05-0.68-0.13-1.01c-0.04-0.17-0.11-0.32-0.19-0.47
	c-0.19-0.33-0.47-0.55-0.83-0.68c-0.25-0.09-0.51-0.15-0.78-0.18c-0.19-0.02-0.38-0.04-0.58-0.07c-0.05-0.01-0.1-0.02-0.14-0.04
	c-0.1-0.03-0.18-0.1-0.2-0.19c-0.08-0.38-0.09-0.77-0.04-1.16c0.01-0.1,0.14-0.21,0.26-0.21c0.1,0,0.19,0,0.29,0.01
	c1.67,0.08,3.35,0.07,5.02,0.04c0.27-0.01,0.53-0.02,0.8-0.04c0.87-0.07,1.74-0.08,2.62-0.13c0.05,0,0.1,0,0.15,0
	c0.16,0,0.29,0.1,0.3,0.25c0,0.05,0.01,0.1,0.01,0.14c-0.01,0.27-0.01,0.53-0.02,0.8c-0.01,0.15-0.11,0.26-0.28,0.29
	c-0.62,0.12-1.24,0.23-1.87,0.3c-0.2,0.02-0.38,0.07-0.56,0.16c-0.13,0.07-0.24,0.17-0.31,0.3c-0.09,0.17-0.15,0.36-0.17,0.55
	c-0.01,0.22-0.02,0.44-0.03,0.65c-0.01,0.85-0.02,1.7-0.04,2.55c-0.01,0.66-0.02,1.31-0.03,1.97c0,0.24,0,0.49,0.01,0.73
	c0,0.1,0.03,0.19,0.06,0.28c0.03,0.09,0.1,0.17,0.19,0.21c0.15,0.08,0.32,0.12,0.49,0.14c0.19,0.01,0.39,0.03,0.58,0.03
	c1.04,0.04,2.08,0.06,3.13,0.06c2.04,0.01,4.08-0.03,6.11-0.07c0.34-0.01,0.68-0.02,1.02-0.03c0.12-0.01,0.24-0.02,0.36-0.04
	c0.26-0.06,0.44-0.21,0.51-0.47c0.04-0.14,0.06-0.28,0.08-0.43c0.01-0.12,0.01-0.24,0.01-0.36c0.01-1.41-0.03-2.81-0.07-4.22
	c-0.01-0.39-0.05-0.78-0.16-1.15c-0.03-0.09-0.07-0.18-0.12-0.26c-0.06-0.11-0.14-0.2-0.25-0.26c-0.11-0.06-0.21-0.12-0.33-0.15
	c-0.21-0.06-0.42-0.12-0.63-0.16c-0.36-0.07-0.72-0.12-1.08-0.17c-0.22-0.03-0.43-0.07-0.64-0.14c-0.08-0.03-0.12-0.09-0.14-0.16
	c-0.05-0.36-0.05-0.72,0.01-1.09c0.02-0.11,0.14-0.22,0.25-0.22c0.05,0,0.1,0,0.15,0c0.12,0,0.24,0.01,0.36,0.01
	c0.36,0.02,0.73,0.03,1.09,0.05c0.61,0.04,1.21,0.07,1.82,0.07c0.92,0,1.84,0,2.76-0.01c0.41,0,0.82-0.03,1.24-0.05
	c0.46-0.02,0.92-0.05,1.38-0.06c0.21-0.01,0.25,0.07,0.3,0.25c0.03,0.09,0.05,0.19,0.05,0.29c0.01,0.27,0.02,0.53,0.02,0.8
	c0,0.12-0.1,0.24-0.21,0.26c-0.33,0.06-0.67,0.1-1.01,0.13c-0.19,0.01-0.39,0.02-0.58,0.04c-0.1,0.01-0.19,0.03-0.29,0.05
	c-0.29,0.08-0.46,0.26-0.51,0.55c-0.08,0.45-0.13,0.91-0.16,1.37c-0.1,1.77-0.09,3.54-0.06,5.31c0.03,2.18,0.05,4.37,0.08,6.55
	c0.01,0.41,0.01,0.82,0.01,1.24c0,0.58,0.04,1.16,0.11,1.74c0.03,0.24,0.1,0.48,0.19,0.7c0.14,0.36,0.39,0.61,0.74,0.76
	c0.2,0.08,0.41,0.15,0.62,0.19c0.33,0.07,0.67,0.11,1.01,0.17c0.07,0.01,0.14,0,0.22,0V149.63z"/>
<path d="M101.84,150.06c-0.01-0.02-0.01-0.06-0.02-0.07c-0.05-0.05-0.11-0.09-0.17-0.13c-0.35-0.23-0.65-0.5-0.92-0.82
	c-0.14-0.17-0.28-0.33-0.42-0.5c-2.06-2.42-4.18-4.79-6.4-7.07c-1.02-1.04-2-2.12-2.98-3.19c-1.14-1.26-2.28-2.52-3.46-3.74
	c-0.25-0.26-0.51-0.52-0.77-0.78c-0.12-0.12-0.28-0.19-0.45-0.22c-0.17-0.03-0.36,0.09-0.39,0.25c-0.01,0.05-0.02,0.09-0.02,0.14
	c-0.01,0.15-0.01,0.29-0.01,0.44c0,2.67-0.01,5.34,0.02,8.01c0.01,0.92,0.06,1.84,0.12,2.76c0.03,0.49,0.11,0.96,0.27,1.43
	c0.04,0.12,0.09,0.23,0.14,0.34c0.19,0.39,0.5,0.65,0.91,0.79c0.25,0.09,0.51,0.16,0.78,0.18c0.31,0.03,0.62,0.08,0.94,0.13
	c0.05,0.01,0.1,0.02,0.14,0.03c0.16,0.03,0.27,0.15,0.29,0.29c0.06,0.31,0.06,0.63,0,0.94c-0.02,0.1-0.09,0.17-0.18,0.21
	c-0.15,0.07-0.32,0.12-0.49,0.13c-0.24,0.01-0.49,0.03-0.73,0.03c-0.58,0-1.16-0.01-1.75-0.02c-0.78-0.01-1.55-0.02-2.33,0
	c-0.53,0.02-1.07,0.04-1.6,0.09c-0.41,0.04-0.82,0.06-1.24,0.03c-0.09-0.01-0.2-0.09-0.23-0.16c-0.01-0.02-0.02-0.04-0.03-0.07
	c-0.12-0.35-0.16-0.71-0.12-1.08c0-0.02,0.01-0.05,0.02-0.07c0.01-0.06,0.08-0.14,0.14-0.15c0.28-0.06,0.57-0.12,0.85-0.19
	c0.36-0.08,0.71-0.15,1.06-0.28c0.14-0.05,0.27-0.1,0.4-0.17c0.31-0.16,0.54-0.41,0.69-0.73c0.07-0.15,0.13-0.32,0.17-0.48
	c0.08-0.35,0.15-0.71,0.17-1.08c0.07-0.97,0.12-1.94,0.12-2.91c0.01-1.53,0.04-3.06,0.04-4.59c0-1.31-0.03-2.62-0.05-3.93
	c-0.01-0.68-0.08-1.36-0.13-2.03c-0.01-0.15-0.08-0.28-0.17-0.4c-0.04-0.06-0.09-0.11-0.14-0.16c-0.42-0.41-0.85-0.8-1.32-1.14
	c-0.49-0.36-1.02-0.66-1.62-0.81c-0.05-0.01-0.09-0.04-0.13-0.05c-0.08-0.03-0.12-0.09-0.14-0.16c-0.1-0.41-0.1-0.82,0.03-1.22
	c0.02-0.07,0.08-0.12,0.15-0.14c0.14-0.05,0.28-0.08,0.43-0.08c0.19-0.01,0.39-0.02,0.58-0.02c1.09,0.01,2.18,0.02,3.28,0.03
	c0.15,0,0.29,0.03,0.43,0.06c0.17,0.04,0.31,0.12,0.43,0.25c0.48,0.52,0.96,1.03,1.44,1.55c3.62,3.89,7.24,7.78,10.89,11.64
	c0.73,0.78,1.47,1.55,2.21,2.32c0.12,0.12,0.24,0.24,0.36,0.36c0.11,0.1,0.26,0.13,0.41,0.1c0.09-0.01,0.19-0.11,0.21-0.18
	c0.01-0.07,0.03-0.14,0.03-0.22c0.01-0.22,0.01-0.44,0.01-0.65c0-1.84,0.01-3.69,0-5.53c0-0.99-0.03-1.99-0.05-2.98
	c-0.01-0.36-0.04-0.73-0.06-1.09c-0.01-0.22-0.04-0.43-0.05-0.65c-0.01-0.51-0.1-1.01-0.17-1.52c-0.01-0.07-0.03-0.14-0.04-0.21
	c-0.14-0.55-0.47-0.95-0.98-1.2c-0.33-0.16-0.68-0.27-1.03-0.34c-0.31-0.06-0.62-0.12-0.93-0.18c-0.08-0.01-0.16-0.12-0.18-0.21
	c-0.05-0.36-0.05-0.73-0.01-1.09c0.01-0.11,0.13-0.23,0.24-0.23c0.05,0,0.1-0.01,0.14-0.01c0.12,0,0.24,0,0.36,0
	c0.39,0.01,0.78,0.02,1.16,0.04c1.09,0.05,2.18,0.06,3.27,0.05c0.44,0,0.87-0.03,1.31-0.06c0.44-0.03,0.87-0.04,1.31-0.06
	c0.09,0,0.19,0.08,0.2,0.17c0.08,0.38,0.09,0.77,0.03,1.16c-0.01,0.05-0.03,0.09-0.04,0.14c-0.02,0.05-0.05,0.08-0.1,0.1
	c-0.05,0.01-0.09,0.03-0.14,0.04c-0.29,0.05-0.57,0.1-0.86,0.13c-0.22,0.03-0.43,0.1-0.63,0.18c-0.43,0.18-0.72,0.49-0.88,0.92
	c-0.06,0.16-0.11,0.32-0.14,0.49c-0.07,0.45-0.16,0.91-0.17,1.37c-0.01,0.58-0.03,1.16-0.04,1.75c-0.02,0.63-0.03,1.26-0.06,1.89
	c-0.05,1.24-0.06,2.47-0.06,3.71c0,3.06,0.01,6.11,0.02,9.17c0,0.12,0,0.24,0,0.37c-0.01,0.24-0.02,0.48-0.15,0.7
	c-0.02,0.04-0.01,0.09-0.01,0.14H101.84z"/>
<path d="M237.85,150.06c-0.04-0.03-0.07-0.07-0.12-0.08c-0.07-0.02-0.14-0.04-0.21-0.04c-0.77-0.08-1.53-0.25-2.28-0.47
	c-0.4-0.11-0.79-0.25-1.16-0.43c-0.17-0.08-0.34-0.18-0.51-0.28c-0.08-0.05-0.16-0.12-0.22-0.18c-0.08-0.09-0.15-0.19-0.17-0.32
	c-0.01-0.07-0.03-0.14-0.03-0.22c-0.07-1.28-0.13-2.57-0.13-3.85c0-0.07,0-0.15,0.01-0.22c0.01-0.07,0.04-0.14,0.1-0.19
	c0.04-0.03,0.07-0.07,0.11-0.09c0.13-0.06,0.27-0.11,0.42-0.12c0.25-0.02,0.48,0.03,0.69,0.17c0.06,0.04,0.11,0.1,0.13,0.17
	c0.06,0.16,0.1,0.32,0.14,0.49c0.12,0.45,0.26,0.88,0.45,1.31c0.16,0.38,0.36,0.74,0.6,1.08c0.37,0.5,0.82,0.89,1.39,1.14
	c0.24,0.11,0.5,0.19,0.76,0.25c0.6,0.14,1.2,0.17,1.81,0.12c0.58-0.05,1.15-0.17,1.69-0.4c0.34-0.14,0.65-0.32,0.94-0.55
	c0.69-0.55,1.12-1.25,1.3-2.12c0.15-0.74,0.07-1.45-0.17-2.15c-0.14-0.4-0.37-0.74-0.67-1.03c-0.26-0.26-0.55-0.48-0.85-0.68
	c-0.34-0.23-0.7-0.43-1.07-0.61c-0.41-0.2-0.83-0.39-1.25-0.59c-0.42-0.19-0.84-0.38-1.25-0.58c-0.48-0.23-0.96-0.48-1.42-0.75
	c-0.71-0.42-1.38-0.9-1.99-1.46c-0.27-0.25-0.52-0.51-0.75-0.79c-0.63-0.76-1.03-1.64-1.2-2.62c-0.02-0.12-0.03-0.24-0.04-0.36
	c-0.03-0.41-0.04-0.82,0.01-1.24c0.13-1.33,0.66-2.47,1.68-3.37c0.22-0.19,0.45-0.36,0.7-0.52c0.6-0.38,1.25-0.65,1.93-0.83
	c0.73-0.2,1.47-0.32,2.23-0.32c0.44,0,0.87,0,1.31,0.01c1.33,0.03,2.59,0.31,3.81,0.85c0.33,0.15,0.67,0.3,0.98,0.47
	c0.1,0.06,0.2,0.13,0.3,0.21c0.1,0.08,0.16,0.18,0.19,0.3c0.02,0.12,0.05,0.24,0.06,0.36c0.02,0.24,0.03,0.49,0.03,0.73
	c0.01,0.82,0.01,1.65,0.01,2.47c0,0.1-0.01,0.19-0.03,0.29c-0.01,0.07-0.06,0.13-0.13,0.16c-0.07,0.03-0.14,0.05-0.21,0.07
	c-0.33,0.06-0.67,0.09-1.01,0.1c-0.07,0-0.18-0.09-0.2-0.17c-0.04-0.19-0.09-0.38-0.14-0.57c-0.1-0.43-0.24-0.84-0.42-1.24
	c-0.12-0.26-0.27-0.52-0.44-0.75c-0.65-0.89-1.53-1.4-2.61-1.55c-0.14-0.02-0.29-0.04-0.43-0.05c-0.24-0.03-0.48-0.03-0.73-0.01
	c-0.22,0.02-0.43,0.04-0.65,0.07c-0.6,0.09-1.18,0.27-1.71,0.58c-0.23,0.13-0.45,0.29-0.64,0.48c-0.47,0.45-0.76,1-0.86,1.65
	c-0.05,0.34-0.06,0.68-0.01,1.01c0.03,0.21,0.05,0.43,0.12,0.64c0.14,0.42,0.37,0.79,0.69,1.1c0.26,0.26,0.54,0.48,0.85,0.68
	c0.3,0.2,0.62,0.39,0.94,0.55c0.41,0.21,0.83,0.41,1.24,0.6c0.5,0.24,1.01,0.46,1.52,0.7c0.48,0.23,0.96,0.47,1.43,0.72
	c0.43,0.22,0.85,0.48,1.25,0.75c0.38,0.26,0.75,0.54,1.1,0.84c0.76,0.65,1.26,1.46,1.55,2.42c0.18,0.61,0.29,1.23,0.29,1.86
	c0,0.24,0,0.49-0.02,0.73c-0.1,1.27-0.54,2.41-1.42,3.35c-0.3,0.32-0.63,0.6-1,0.85c-0.64,0.44-1.34,0.78-2.09,1.01
	c-0.49,0.15-0.98,0.28-1.49,0.33c-0.1,0.01-0.19,0.04-0.26,0.12H237.85z"/>
<path d="M36.68,127.75c1.15-0.08,2.24-0.11,3.34-0.13c0.7-0.01,1.41,0,2.11-0.01c0.58,0,1.16,0.06,1.74,0.17
	c0.57,0.11,1.13,0.27,1.65,0.54c1.07,0.55,1.89,1.36,2.4,2.45c0.41,0.85,0.53,1.76,0.43,2.7c-0.04,0.38-0.09,0.77-0.21,1.14
	c-0.15,0.52-0.38,1-0.69,1.43c-0.54,0.77-1.23,1.37-2.07,1.79c-0.43,0.22-0.89,0.39-1.34,0.55c-0.16,0.06-0.32,0.12-0.48,0.18
	c-0.1,0.04-0.15,0.23-0.09,0.32c0.05,0.08,0.1,0.17,0.16,0.24c1.9,2.46,3.92,4.81,6.11,7.02c0.21,0.21,0.42,0.4,0.66,0.58
	c0.54,0.41,1.11,0.78,1.72,1.09c0.24,0.12,0.48,0.23,0.73,0.34c0.54,0.23,1.1,0.38,1.68,0.43c0.21,0.02,0.27,0.09,0.28,0.26
	c0.01,0.19,0.01,0.39-0.03,0.58c-0.02,0.1-0.14,0.23-0.25,0.24c-0.1,0.01-0.19,0.02-0.29,0.02c-1.09,0-2.18-0.02-3.27-0.07
	c-0.41-0.02-0.82-0.1-1.23-0.16c-0.22-0.03-0.42-0.11-0.62-0.2c-0.15-0.07-0.31-0.15-0.45-0.23c-0.91-0.53-1.72-1.18-2.39-2
	c-0.58-0.71-1.2-1.4-1.83-2.07c-0.1-0.11-0.2-0.21-0.3-0.32c-1.17-1.24-2.22-2.56-3.2-3.96c-0.11-0.16-0.22-0.32-0.34-0.47
	c-0.07-0.1-0.15-0.19-0.23-0.28c-0.17-0.17-0.38-0.3-0.62-0.37c-0.19-0.05-0.38-0.09-0.57-0.09c-0.49,0-0.97,0.01-1.45,0.01
	c-0.12,0-0.24,0.03-0.35,0.09c-0.09,0.05-0.15,0.12-0.18,0.22c-0.01,0.07-0.02,0.14-0.03,0.22c0,0.17,0,0.34,0,0.51
	c0,1.29,0,2.57,0,3.86c0,0.24,0.01,0.49,0.01,0.73c0,0.44,0.06,0.87,0.15,1.3c0.04,0.22,0.12,0.42,0.21,0.62
	c0.11,0.25,0.29,0.44,0.53,0.58c0.24,0.13,0.49,0.22,0.75,0.28c0.28,0.06,0.57,0.1,0.86,0.16c0.26,0.05,0.52,0.1,0.79,0.15
	c0.1,0.02,0.18,0.11,0.19,0.19c0.03,0.29,0.03,0.58,0,0.87c-0.01,0.08-0.1,0.19-0.17,0.22c-0.25,0.09-0.51,0.15-0.78,0.16
	c-0.29,0.01-0.58,0.02-0.87,0.01c-0.92-0.01-1.84-0.02-2.76-0.04c-1.26-0.02-2.52,0.01-3.78,0.07c-0.39,0.01-0.77,0.06-1.16,0.08
	c-0.1,0.01-0.19,0.01-0.29-0.01c-0.08-0.02-0.13-0.07-0.16-0.13c-0.03-0.06-0.05-0.14-0.06-0.21c-0.03-0.31-0.03-0.63,0-0.94
	c0.01-0.12,0.11-0.23,0.23-0.24c0.41-0.06,0.82-0.11,1.22-0.18c0.38-0.06,0.76-0.14,1.13-0.27c0.07-0.02,0.14-0.05,0.2-0.08
	c0.13-0.07,0.24-0.17,0.3-0.31c0.07-0.16,0.12-0.32,0.13-0.49c0.01-0.27,0.03-0.53,0.03-0.8c0.03-4.29,0.02-8.59-0.04-12.88
	c0-0.32-0.01-0.63-0.02-0.95c0-0.44-0.05-0.87-0.11-1.3c-0.03-0.22-0.1-0.43-0.18-0.63c-0.08-0.2-0.23-0.37-0.41-0.5
	c-0.14-0.1-0.29-0.18-0.45-0.23c-0.25-0.08-0.51-0.16-0.77-0.2c-0.41-0.05-0.81-0.14-1.23-0.17c-0.05,0-0.1-0.02-0.14-0.04
	c-0.07-0.03-0.12-0.08-0.15-0.15c-0.06-0.18-0.09-0.38-0.1-0.57c-0.01-0.2,0.03-0.38,0.1-0.57c0.04-0.1,0.17-0.21,0.28-0.21
	c0.1,0,0.19,0,0.29,0c1.24,0.07,2.47,0.07,3.71,0.08C35.34,127.76,36.04,127.75,36.68,127.75 M37.08,133.66L37.08,133.66
	c0,0.99,0,1.99,0,2.98c0,0.19,0,0.39,0.01,0.58c0,0.07,0.02,0.14,0.03,0.22c0.02,0.11,0.14,0.23,0.24,0.25
	c0.07,0.01,0.14,0.03,0.22,0.03c0.22,0.01,0.44,0.01,0.65,0.01c0.65,0.01,1.31,0.01,1.96-0.01c0.46-0.02,0.92-0.08,1.37-0.18
	c0.74-0.17,1.42-0.49,2-0.99c0.28-0.24,0.52-0.51,0.7-0.83c0.27-0.47,0.43-0.97,0.5-1.51c0.06-0.53,0.07-1.07,0-1.6
	c-0.08-0.66-0.33-1.26-0.77-1.77c-0.39-0.45-0.86-0.78-1.42-0.98c-0.2-0.07-0.41-0.14-0.62-0.19c-0.62-0.15-1.24-0.22-1.87-0.25
	c-0.65-0.04-1.31-0.03-1.96-0.02c-0.17,0.01-0.34,0.02-0.51,0.04c-0.09,0.01-0.18,0.05-0.27,0.09c-0.07,0.03-0.12,0.08-0.15,0.15
	c-0.03,0.09-0.07,0.18-0.08,0.28c-0.02,0.12-0.02,0.24-0.02,0.36C37.08,131.43,37.08,132.54,37.08,133.66"/>
<path d="M175.51,139c-0.02-1.25-0.04-2.54-0.06-3.82c-0.01-0.95-0.03-1.89-0.05-2.84c-0.01-0.27-0.01-0.53-0.02-0.8
	c-0.01-0.32-0.08-0.63-0.17-0.93c-0.11-0.37-0.34-0.64-0.69-0.8c-0.29-0.13-0.59-0.23-0.9-0.28c-0.38-0.06-0.76-0.14-1.15-0.16
	c-0.1-0.01-0.19-0.03-0.29-0.05c-0.1-0.03-0.17-0.09-0.21-0.19c-0.02-0.04-0.04-0.09-0.04-0.14c-0.05-0.24-0.05-0.48-0.02-0.73
	c0.01-0.12,0.06-0.23,0.13-0.33c0.05-0.07,0.11-0.1,0.18-0.11c0.12-0.01,0.24-0.01,0.36-0.01c0.75,0.02,1.5,0.05,2.26,0.06
	c0.78,0.01,1.55,0.02,2.33,0.02c0.44,0,0.87-0.02,1.31-0.04c1.5-0.06,3.01-0.11,4.51-0.11c0.46,0,0.92,0.02,1.38,0.04
	c0.59,0.02,1.15,0.14,1.72,0.28c1.12,0.29,2.03,0.9,2.77,1.78c0.54,0.65,0.89,1.39,1.05,2.21c0.02,0.12,0.03,0.24,0.04,0.36
	c0.04,0.49,0.04,0.97-0.01,1.45c-0.09,0.81-0.35,1.56-0.81,2.24c-0.53,0.77-1.21,1.39-2.04,1.83c-0.34,0.18-0.7,0.33-1.07,0.47
	c-0.2,0.07-0.41,0.14-0.62,0.21c-0.09,0.03-0.18,0.09-0.26,0.13c-0.07,0.04-0.11,0.19-0.07,0.26c0.05,0.08,0.1,0.17,0.16,0.24
	c1.91,2.49,3.95,4.85,6.16,7.08c0.14,0.14,0.28,0.27,0.43,0.39c0.67,0.53,1.38,0.99,2.15,1.36c0.13,0.06,0.26,0.13,0.4,0.18
	c0.45,0.19,0.9,0.35,1.39,0.41c0.17,0.02,0.33,0.05,0.5,0.08c0.08,0.01,0.15,0.12,0.16,0.22c0.02,0.22-0.01,0.44-0.06,0.65
	c-0.01,0.02-0.02,0.04-0.03,0.07c-0.02,0.05-0.05,0.08-0.1,0.09c-0.07,0.02-0.14,0.04-0.21,0.04c-1.12,0-2.23,0-3.35-0.05
	c-0.41-0.02-0.82-0.09-1.23-0.15c-0.24-0.03-0.47-0.11-0.69-0.21c-0.13-0.06-0.26-0.12-0.39-0.2c-0.91-0.52-1.74-1.16-2.41-1.97
	c-0.7-0.84-1.43-1.65-2.17-2.45c-1.08-1.15-2.08-2.37-2.99-3.66c-0.14-0.2-0.28-0.4-0.42-0.59c-0.07-0.1-0.14-0.2-0.21-0.29
	c-0.3-0.39-0.71-0.58-1.19-0.62c-0.02,0-0.05,0-0.07,0c-0.51,0-1.02,0-1.53,0c-0.1,0-0.19,0.02-0.28,0.05
	c-0.15,0.05-0.24,0.16-0.27,0.31c-0.01,0.1-0.02,0.19-0.02,0.29c0,1.48,0,2.96,0,4.44c0,0.51,0.05,1.02,0.11,1.52
	c0.04,0.34,0.14,0.67,0.29,0.97c0.11,0.22,0.28,0.39,0.5,0.52c0.25,0.15,0.53,0.24,0.82,0.3c0.33,0.07,0.67,0.12,1,0.17
	c0.22,0.03,0.43,0.07,0.64,0.15c0.04,0.01,0.07,0.07,0.09,0.11c0.01,0.02,0.01,0.04,0.02,0.07c0.03,0.29,0.03,0.58,0,0.87
	c-0.01,0.08-0.1,0.19-0.17,0.22c-0.32,0.11-0.66,0.16-1,0.17c-0.39,0-0.78,0.01-1.16,0c-0.68-0.01-1.36-0.03-2.04-0.04
	c-0.61-0.01-1.21-0.01-1.82,0c-0.53,0.01-1.07,0.03-1.6,0.04c-0.56,0.02-1.12,0.03-1.67,0.1c-0.1,0.01-0.19,0.01-0.29,0
	c-0.07-0.01-0.14-0.04-0.18-0.11c-0.03-0.07-0.08-0.13-0.09-0.2c-0.04-0.34-0.04-0.68,0-1.01c0.01-0.09,0.1-0.19,0.18-0.2
	c0.02,0,0.05-0.01,0.07-0.02c0.38-0.05,0.77-0.1,1.15-0.17c0.38-0.07,0.76-0.13,1.13-0.26c0.07-0.02,0.14-0.05,0.2-0.08
	c0.21-0.1,0.36-0.25,0.41-0.48c0.07-0.31,0.1-0.62,0.11-0.94c0-0.17,0-0.34,0-0.51C175.49,143.6,175.5,141.32,175.51,139
	 M178.71,133.75c0,1.09,0,2.18,0,3.27c0,0.15,0,0.29,0.01,0.43c0,0.05,0.02,0.09,0.03,0.14c0.01,0.08,0.12,0.18,0.19,0.2
	c0.09,0.02,0.19,0.04,0.29,0.04c0.8,0.01,1.6,0.02,2.4,0c0.49-0.01,0.97-0.07,1.44-0.17c0.75-0.16,1.42-0.46,2.02-0.94
	c0.51-0.41,0.86-0.92,1.07-1.53c0.16-0.46,0.24-0.94,0.27-1.42c0.03-0.46-0.02-0.92-0.11-1.37c-0.09-0.43-0.25-0.83-0.51-1.19
	c-0.38-0.52-0.85-0.92-1.45-1.17c-0.22-0.09-0.45-0.17-0.69-0.23c-0.59-0.15-1.19-0.23-1.79-0.27c-0.44-0.02-0.87-0.03-1.31-0.03
	c-0.36,0-0.73,0.01-1.09,0.01c-0.12,0-0.24,0.03-0.36,0.04c-0.19,0.03-0.36,0.21-0.38,0.39c-0.01,0.14-0.02,0.29-0.02,0.43
	C178.71,131.52,178.71,132.63,178.71,133.75"/>
<path d="M212.23,127.75c1.09-0.03,2.18-0.06,3.27-0.07c1.46-0.02,2.91-0.02,4.37-0.02c0.24,0,0.49,0.01,0.73,0.02
	c0.27,0.01,0.53,0.05,0.79,0.12c0.1,0.03,0.16,0.11,0.19,0.2c0.02,0.07,0.04,0.14,0.04,0.21c0.02,0.19,0.03,0.39,0.04,0.58
	c0.04,1.26,0.05,2.52,0.02,3.79c-0.01,0.22-0.02,0.44-0.04,0.65c-0.01,0.07-0.03,0.14-0.06,0.21c-0.03,0.07-0.08,0.12-0.15,0.14
	c-0.33,0.09-0.67,0.1-1.01,0.02c-0.07-0.02-0.14-0.05-0.16-0.13c-0.06-0.18-0.12-0.37-0.17-0.56c-0.09-0.3-0.18-0.6-0.28-0.9
	c-0.08-0.23-0.18-0.45-0.29-0.67c-0.38-0.76-0.99-1.24-1.8-1.48c-0.32-0.09-0.66-0.16-1-0.2c-0.77-0.09-1.55-0.1-2.33-0.1
	c-1.24,0-2.48,0-3.71,0.01c-0.15,0-0.29,0-0.43,0.05c-0.12,0.04-0.21,0.12-0.23,0.25c-0.01,0.05-0.02,0.1-0.02,0.14
	c-0.01,0.12-0.01,0.24-0.01,0.36c0,1.99,0,3.98,0,5.97c0,0.15,0.01,0.29,0.03,0.44c0.01,0.11,0.12,0.22,0.24,0.23
	c0.1,0.01,0.19,0.03,0.29,0.03c0.87,0.01,1.75,0.02,2.62,0.02c0.44,0,0.87-0.05,1.3-0.12c0.31-0.05,0.61-0.17,0.87-0.34
	c0.38-0.25,0.65-0.58,0.81-1c0.12-0.32,0.21-0.65,0.28-0.98c0.04-0.21,0.09-0.43,0.16-0.63c0.02-0.07,0.09-0.12,0.16-0.14
	c0.04-0.02,0.09-0.04,0.14-0.05c0.19-0.04,0.38-0.04,0.58-0.02c0.1,0.01,0.19,0.05,0.27,0.1c0.07,0.04,0.11,0.09,0.13,0.17
	c0.01,0.07,0.02,0.14,0.01,0.22c-0.01,0.27-0.01,0.53-0.04,0.8c-0.06,0.65-0.08,1.31-0.08,1.96c-0.01,0.97-0.01,1.94-0.01,2.91
	c0,0.51,0.03,1.02,0.04,1.53c0,0.07-0.01,0.14-0.03,0.21c-0.01,0.08-0.08,0.12-0.14,0.16c-0.02,0.01-0.05,0.02-0.07,0.02
	c-0.29,0.05-0.58,0.06-0.87,0.03c-0.09-0.01-0.19-0.1-0.2-0.18c-0.01-0.07-0.03-0.14-0.04-0.21c-0.07-0.36-0.15-0.71-0.27-1.06
	c-0.08-0.23-0.18-0.45-0.32-0.65c-0.2-0.29-0.46-0.5-0.79-0.62c-0.23-0.08-0.46-0.15-0.7-0.18c-0.58-0.07-1.16-0.12-1.74-0.12
	c-0.63,0-1.26,0-1.89,0c-0.12,0-0.24,0.01-0.36,0.02c-0.16,0.02-0.32,0.17-0.34,0.33c-0.01,0.07-0.03,0.14-0.03,0.22
	c-0.01,0.17-0.01,0.34-0.01,0.51c0,2.06,0,4.13,0,6.19c0,0.32,0,0.63,0.05,0.94c0.02,0.12,0.07,0.23,0.14,0.33
	c0.06,0.08,0.13,0.14,0.22,0.19c0.13,0.07,0.27,0.12,0.41,0.13c0.15,0.01,0.29,0.02,0.44,0.02c1.58,0.01,3.15,0.06,4.73,0.01
	c0.17-0.01,0.34-0.01,0.51-0.01c0.51,0,1.02-0.07,1.52-0.16c0.41-0.07,0.79-0.24,1.12-0.49c0.27-0.21,0.51-0.45,0.73-0.71
	c0.3-0.35,0.57-0.73,0.82-1.11c0.21-0.32,0.43-0.65,0.64-0.97c0.1-0.14,0.2-0.28,0.33-0.39c0.08-0.07,0.17-0.1,0.27-0.1
	c0.05,0,0.1,0,0.15,0.01c0.21,0.04,0.42,0.12,0.6,0.25c0.16,0.11,0.23,0.26,0.19,0.44c-0.01,0.07-0.02,0.14-0.05,0.21
	c-0.08,0.28-0.16,0.56-0.26,0.83c-0.22,0.6-0.33,1.22-0.4,1.85c-0.04,0.36-0.12,0.72-0.18,1.08c-0.03,0.17-0.09,0.33-0.14,0.49
	c-0.05,0.14-0.15,0.25-0.28,0.33c-0.14,0.09-0.3,0.16-0.47,0.19c-0.41,0.07-0.82,0.13-1.23,0.13c-0.07,0-0.15,0-0.22,0
	c-1.99,0-3.98,0-5.97,0c-1.72,0-3.45-0.02-5.17-0.01c-0.8,0-1.6,0.02-2.4,0.04c-0.39,0.01-0.78,0.03-1.16,0.08
	c-0.29,0.04-0.58,0.06-0.87,0.05c-0.22-0.01-0.43-0.06-0.63-0.16c-0.04-0.02-0.08-0.06-0.11-0.09c-0.03-0.04-0.06-0.08-0.07-0.12
	c-0.05-0.36-0.04-0.73,0-1.09c0.01-0.08,0.07-0.12,0.13-0.16c0.08-0.05,0.18-0.08,0.27-0.1c0.36-0.05,0.72-0.1,1.08-0.14
	c0.24-0.03,0.48-0.08,0.71-0.15c0.59-0.17,0.95-0.57,1.09-1.16c0.09-0.35,0.16-0.71,0.16-1.08c0.01-0.53,0.03-1.07,0.03-1.6
	c0-3.01,0-6.02-0.01-9.03c0-0.87,0-1.75,0-2.62c0-0.34-0.01-0.68-0.02-1.02c0-0.32-0.07-0.63-0.15-0.93
	c-0.04-0.14-0.11-0.27-0.18-0.39c-0.09-0.15-0.22-0.26-0.37-0.34c-0.2-0.1-0.4-0.17-0.62-0.19c-0.22-0.01-0.44-0.03-0.65-0.04
	c-0.37-0.01-0.73-0.06-1.09-0.11c-0.16-0.02-0.26-0.12-0.3-0.27c-0.12-0.41-0.1-0.82,0.04-1.22c0.02-0.07,0.08-0.12,0.15-0.14
	c0.07-0.02,0.14-0.04,0.21-0.04c0.24,0,0.49,0,0.73,0.01c0.68,0.02,1.36,0.05,2.04,0.07c0.65,0.02,1.31,0.05,1.96,0.08
	c0.95,0.05,1.89,0.04,2.84,0.04L212.23,127.75L212.23,127.75z"/>
<path d="M7.75,147.03c0.01-0.17,0.02-0.34,0.02-0.51c0.02-1.21,0.05-2.42,0.06-3.64c0.01-0.7,0.02-1.41,0.01-2.11
	c-0.01-1.82-0.03-3.64-0.04-5.46c-0.01-1.07-0.02-2.13-0.04-3.2c0-0.24-0.01-0.49-0.01-0.73c0-0.34-0.06-0.68-0.14-1.01
	c-0.08-0.32-0.26-0.57-0.56-0.73c-0.09-0.05-0.17-0.09-0.26-0.12c-0.44-0.15-0.89-0.25-1.35-0.28c-0.22-0.01-0.44-0.02-0.65-0.03
	c-0.09,0-0.19-0.09-0.2-0.18c-0.03-0.19-0.07-0.38-0.1-0.57c-0.03-0.22,0-0.44,0.08-0.64c0.03-0.07,0.08-0.12,0.16-0.14
	c0.07-0.02,0.14-0.02,0.22-0.02c0.32,0.01,0.63,0.01,0.95,0.03c1.41,0.08,2.81,0.07,4.34,0.06c0.34-0.01,0.8-0.02,1.26-0.04
	c1.11-0.04,2.23-0.06,3.35-0.04c1.42,0.02,2.79,0.3,4.11,0.85c0.34,0.14,0.66,0.3,0.98,0.49c0.5,0.3,0.96,0.66,1.36,1.09
	c0.73,0.78,1.2,1.69,1.38,2.75c0.12,0.7,0.13,1.4,0.02,2.1c-0.04,0.26-0.08,0.52-0.15,0.78c-0.24,0.87-0.68,1.6-1.31,2.23
	c-0.49,0.48-1.03,0.88-1.63,1.22c-0.3,0.17-0.61,0.3-0.93,0.4c-0.65,0.21-1.31,0.35-1.98,0.44c-0.17,0.02-0.34,0.04-0.51,0.06
	c-0.26,0.04-0.53,0.06-0.8,0.08c-1.14,0.06-2.28,0.08-3.42,0.01c-0.15-0.01-0.29-0.01-0.44-0.01c-0.05,0-0.1,0.02-0.14,0.02
	c-0.08,0.01-0.19,0.11-0.2,0.19c-0.01,0.05-0.02,0.1-0.02,0.14c-0.01,0.14-0.01,0.29-0.01,0.44c0,1.26,0.01,2.52,0,3.78
	c0,0.56,0.06,1.11,0.14,1.67c0.03,0.19,0.09,0.38,0.16,0.56c0.07,0.21,0.2,0.38,0.38,0.53c0.21,0.17,0.44,0.3,0.7,0.37
	c0.3,0.09,0.61,0.16,0.93,0.17c0.17,0,0.34,0.01,0.51,0.04c0.17,0.02,0.33,0.07,0.5,0.1c0.05,0.01,0.14,0.11,0.14,0.15
	c0.03,0.34,0.03,0.68,0,1.02c-0.01,0.07-0.06,0.13-0.13,0.17c-0.09,0.05-0.18,0.09-0.27,0.1c-0.22,0.01-0.43,0.03-0.65,0.03
	c-0.75,0-1.5-0.01-2.26-0.03c-0.97-0.02-1.94-0.02-2.91,0.01c-0.39,0.01-0.78,0.02-1.16,0.03c-0.48,0.01-0.97,0.04-1.45,0.08
	c-0.27,0.02-0.53,0.05-0.8,0.03c-0.08-0.01-0.19-0.09-0.21-0.18c-0.1-0.3-0.15-0.61-0.12-0.93c0.01-0.07,0.03-0.14,0.05-0.21
	c0.02-0.08,0.08-0.12,0.15-0.15c0.09-0.03,0.19-0.06,0.28-0.07c0.48-0.04,0.96-0.15,1.44-0.2c0.24-0.02,0.48-0.08,0.71-0.16
	 M11.04,134.23c0,1.09,0,2.18,0,3.28c0,0.22,0,0.44,0.01,0.65c0.01,0.23,0.13,0.36,0.35,0.39c0.77,0.11,1.55,0.14,2.32,0.07
	c0.24-0.02,0.48-0.04,0.72-0.06c0.7-0.06,1.39-0.22,2.06-0.45c0.41-0.15,0.8-0.33,1.17-0.58c0.57-0.37,0.98-0.86,1.22-1.5
	c0.12-0.32,0.22-0.64,0.24-0.99c0.01-0.17,0.03-0.34,0.04-0.51c0.02-0.61-0.03-1.21-0.21-1.8c-0.21-0.71-0.57-1.34-1.09-1.86
	c-0.45-0.45-0.98-0.8-1.57-1.04c-0.65-0.26-1.34-0.44-2.05-0.48c-0.87-0.05-1.75-0.04-2.62-0.02c-0.31,0.01-0.38,0.13-0.46,0.38
	c-0.03,0.09-0.05,0.19-0.06,0.28c-0.05,0.48-0.09,0.97-0.09,1.45C11.05,132.39,11.04,133.31,11.04,134.23"/>
<path d="M153.97,127.76c2.65,0,5.29,0,7.93,0c0.24,0,0.48,0.01,0.73,0.01c0.12,0,0.22,0.11,0.23,0.24c0,0.02,0.01,0.05,0.01,0.07
	c0.03,0.44,0.07,0.87,0.08,1.31c0.04,1.21-0.01,2.43-0.09,3.64c0,0.05-0.01,0.1-0.02,0.14c-0.02,0.07-0.05,0.13-0.13,0.17
	c-0.07,0.03-0.13,0.07-0.2,0.08c-0.31,0.07-0.63,0.06-0.94,0c-0.05-0.01-0.09-0.03-0.13-0.05c-0.06-0.04-0.12-0.09-0.14-0.16
	c-0.02-0.09-0.04-0.19-0.05-0.28c-0.07-0.46-0.16-0.91-0.29-1.35c-0.07-0.26-0.17-0.51-0.29-0.74c-0.12-0.24-0.29-0.44-0.51-0.6
	c-0.4-0.28-0.83-0.51-1.3-0.63c-0.07-0.02-0.14-0.04-0.21-0.05c-0.48-0.06-0.96-0.13-1.45-0.13c-0.56,0-1.12,0-1.67,0.04
	c-1.02,0.06-2.04,0.07-3.06,0c-0.1-0.01-0.19-0.01-0.29-0.01c-0.1,0.01-0.19,0.03-0.29,0.06c-0.12,0.04-0.21,0.12-0.24,0.25
	c-0.02,0.07-0.03,0.14-0.04,0.21c-0.05,0.41-0.09,0.82-0.1,1.23c-0.01,0.61-0.02,1.21-0.03,1.82c0,1.12,0,2.23,0,3.35
	c0,0.17,0.01,0.34,0.03,0.51c0.01,0.1,0.06,0.18,0.13,0.25c0.05,0.06,0.11,0.09,0.19,0.11c0.1,0.02,0.19,0.03,0.29,0.03
	c0.85,0,1.7-0.01,2.55-0.02c0.41,0,0.82-0.08,1.23-0.16c0.24-0.05,0.46-0.14,0.68-0.25c0.22-0.12,0.39-0.28,0.51-0.5
	c0.11-0.19,0.19-0.39,0.25-0.61c0.13-0.47,0.23-0.94,0.29-1.42c0.02-0.12,0.03-0.24,0.08-0.35c0.04-0.09,0.11-0.16,0.21-0.18
	c0.29-0.06,0.58-0.09,0.87-0.04c0.07,0.01,0.14,0.03,0.21,0.05c0.06,0.02,0.16,0.16,0.15,0.23c-0.04,0.48-0.08,0.97-0.14,1.45
	c-0.06,0.51-0.08,1.02-0.08,1.53c0.01,1.72-0.03,3.45,0.03,5.17c0,0.05-0.01,0.1-0.01,0.14c0,0.09-0.08,0.2-0.16,0.22
	c-0.07,0.02-0.14,0.05-0.21,0.06c-0.27,0.03-0.53,0.03-0.8,0c-0.02,0-0.05-0.01-0.07-0.02c-0.08-0.01-0.18-0.12-0.19-0.2
	c-0.02-0.22-0.04-0.43-0.06-0.65c-0.05-0.48-0.14-0.96-0.29-1.42c-0.06-0.18-0.14-0.36-0.24-0.53c-0.18-0.31-0.43-0.52-0.77-0.63
	c-0.16-0.05-0.32-0.11-0.49-0.13c-0.55-0.06-1.11-0.14-1.67-0.14c-0.63,0-1.26-0.01-1.89-0.01c-0.1,0-0.19,0.01-0.29,0.02
	c-0.13,0.01-0.28,0.16-0.29,0.29c-0.01,0.12-0.02,0.24-0.02,0.36c0,0.39,0,0.78,0,1.16c0,1.17,0,2.33,0,3.5c0,0.29,0.01,0.58,0,0.87
	c0,0.46,0.07,0.92,0.14,1.38c0.03,0.22,0.11,0.42,0.2,0.62c0.14,0.29,0.35,0.53,0.63,0.68c0.28,0.15,0.57,0.27,0.89,0.31
	c0.31,0.04,0.62,0.08,0.94,0.11c0.12,0.01,0.24,0.03,0.36,0.04c0.1,0.01,0.23,0.13,0.25,0.24c0.01,0.05,0.03,0.09,0.03,0.14
	c0.03,0.27,0.03,0.53-0.01,0.8c-0.02,0.17-0.16,0.32-0.33,0.34c-0.12,0.02-0.24,0.03-0.36,0.04c-0.68,0.02-1.36,0.01-2.04-0.05
	c-0.85-0.07-1.7-0.11-2.54-0.11c-0.99-0.01-1.99,0.02-2.98,0.11c-0.36,0.04-0.73,0.05-1.09,0.07c-0.07,0-0.15-0.01-0.21-0.03
	c-0.04-0.01-0.1-0.05-0.11-0.09c-0.13-0.39-0.23-0.79-0.19-1.21c0.01-0.07,0.1-0.2,0.18-0.21c0.1-0.02,0.19-0.04,0.29-0.05
	c0.55-0.06,1.11-0.11,1.66-0.17c0.2-0.02,0.38-0.07,0.56-0.16c0.16-0.08,0.27-0.2,0.35-0.36c0.08-0.18,0.14-0.36,0.15-0.56
	c0.01-0.24,0.03-0.48,0.04-0.73c0.01-0.34,0.01-0.68,0.01-1.02c0-4.34,0-8.69,0-13.03c0-0.46-0.01-0.92-0.05-1.38
	c-0.01-0.17-0.06-0.33-0.11-0.49c-0.12-0.34-0.36-0.58-0.68-0.72c-0.18-0.08-0.36-0.14-0.55-0.18c-0.33-0.06-0.66-0.15-1-0.18
	c-0.22-0.01-0.43-0.06-0.64-0.12c-0.1-0.03-0.17-0.1-0.19-0.21c-0.07-0.36-0.08-0.72,0-1.08c0.02-0.1,0.15-0.21,0.26-0.22
	c0.1,0,0.19,0,0.29,0c0.7,0.02,1.41,0.04,2.11,0.06c0.63,0.02,1.26,0.05,1.89,0.06c0.8,0.02,1.6,0.04,2.4,0.04
	C152.71,127.77,153.34,127.76,153.97,127.76"/>
<path d="M126.9,137.81v6.33c0,0.27,0.01,0.53,0,0.8c-0.01,0.49,0.06,0.97,0.13,1.45c0.03,0.22,0.1,0.43,0.19,0.62
	c0.16,0.35,0.42,0.59,0.79,0.71c0.21,0.07,0.42,0.13,0.64,0.15c0.43,0.05,0.86,0.15,1.3,0.17c0.1,0,0.19,0.04,0.27,0.09
	c0.07,0.04,0.11,0.09,0.14,0.16c0.01,0.02,0.01,0.05,0.02,0.07c0.04,0.22,0.04,0.43,0.01,0.65c-0.03,0.25-0.23,0.53-0.55,0.61
	c-0.16,0.04-0.33,0.07-0.5,0.07c-0.19,0-0.39-0.01-0.58-0.02c-0.94-0.06-1.89-0.08-2.84-0.08c-1.09,0.01-2.18,0.02-3.28,0.04
	c-0.39,0.01-0.77,0.04-1.16,0.06c-0.29,0.01-0.58,0.03-0.87,0.03c-0.1,0-0.18-0.05-0.25-0.13c-0.07-0.1-0.13-0.2-0.16-0.32
	c-0.06-0.26-0.07-0.53,0.01-0.79c0.04-0.15,0.15-0.26,0.3-0.28c0.74-0.11,1.48-0.27,2.23-0.34c0.17-0.02,0.33-0.08,0.48-0.17
	c0.08-0.05,0.15-0.13,0.18-0.22c0.07-0.18,0.12-0.37,0.13-0.57c0.01-0.32,0.03-0.63,0.03-0.95c0.01-3.06,0.01-6.12,0.01-9.17
	c0-1.41-0.02-2.81-0.04-4.22c-0.01-0.73-0.03-1.46-0.08-2.18c-0.01-0.17-0.03-0.34-0.06-0.5c-0.01-0.07-0.05-0.14-0.09-0.2
	c-0.05-0.08-0.13-0.15-0.22-0.17c-0.07-0.02-0.14-0.04-0.21-0.04c-0.1-0.01-0.19-0.01-0.29-0.01c-0.73,0.02-1.46,0.04-2.18,0.07
	c-0.7,0.03-1.4,0.14-2.09,0.29c-0.36,0.08-0.7,0.2-1.03,0.35c-0.53,0.24-0.93,0.61-1.21,1.12c-0.16,0.3-0.29,0.61-0.39,0.94
	c-0.12,0.39-0.2,0.8-0.31,1.2c-0.03,0.1-0.1,0.17-0.18,0.22c-0.06,0.04-0.13,0.07-0.2,0.08c-0.17,0.04-0.34,0.04-0.51,0.01
	c-0.17-0.03-0.32-0.1-0.45-0.22c-0.03-0.03-0.06-0.08-0.07-0.12c-0.02-0.07-0.03-0.14-0.03-0.21c0.02-0.78,0.03-1.55,0.06-2.33
	c0.03-0.87,0.07-1.74,0.11-2.62c0.01-0.24,0.03-0.49,0.05-0.73c0.01-0.12,0.08-0.24,0.18-0.3c0.31-0.2,0.65-0.32,1.03-0.3
	c0.18,0.01,0.33,0.1,0.44,0.23c0.08,0.09,0.13,0.2,0.19,0.31c0.06,0.12,0.16,0.18,0.29,0.2c0.53,0.08,1.06,0.13,1.6,0.13
	c1.04,0.01,2.09,0.02,3.13,0.02c2.33,0,4.66,0,6.99,0c1.24,0,2.47-0.01,3.71-0.01c0.29,0,0.58-0.01,0.87-0.02
	c0.39-0.01,0.77-0.08,1.15-0.16c0.19-0.04,0.37-0.11,0.54-0.21c0.1-0.06,0.21-0.12,0.32-0.18c0.24-0.14,0.49-0.2,0.76-0.24
	c0.17-0.02,0.34,0,0.5,0.08c0.11,0.06,0.19,0.15,0.21,0.28c0.02,0.1,0.03,0.19,0.02,0.29c-0.01,0.31-0.02,0.63-0.05,0.94
	c-0.07,0.75-0.08,1.5-0.08,2.26c0,0.56,0.01,1.12,0.01,1.67c0,0.15,0,0.29,0,0.44c0,0.24-0.18,0.46-0.42,0.54
	c-0.29,0.1-0.57,0.06-0.85-0.04c-0.04-0.02-0.08-0.05-0.12-0.07c-0.12-0.09-0.22-0.19-0.25-0.35c-0.05-0.26-0.1-0.52-0.15-0.79
	c-0.07-0.33-0.13-0.67-0.26-0.98c-0.04-0.11-0.09-0.22-0.15-0.33c-0.11-0.22-0.28-0.39-0.49-0.53c-0.23-0.14-0.47-0.26-0.71-0.36
	c-0.41-0.16-0.83-0.27-1.26-0.35c-0.67-0.14-1.35-0.17-2.03-0.19c-0.56-0.01-1.12-0.01-1.67-0.01c-0.1,0-0.19,0.01-0.29,0.03
	c-0.21,0.03-0.35,0.15-0.38,0.38c-0.01,0.07-0.02,0.15-0.02,0.22c0,0.22,0,0.44,0,0.65V137.81z"/>
<path d="M64.31,138.63c-0.02-2.06-0.04-4.12-0.06-6.19c0-0.44-0.04-0.87-0.1-1.31c-0.03-0.24-0.11-0.47-0.21-0.69
	c-0.16-0.34-0.4-0.6-0.74-0.77c-0.26-0.13-0.53-0.23-0.82-0.28c-0.36-0.07-0.71-0.15-1.08-0.16c-0.07,0-0.14-0.02-0.22-0.03
	c-0.1-0.01-0.23-0.14-0.25-0.24c-0.01-0.05-0.02-0.1-0.03-0.14c-0.02-0.24-0.03-0.49,0-0.73c0.01-0.1,0.05-0.19,0.07-0.28
	c0.02-0.08,0.14-0.17,0.22-0.17c0.1,0,0.19,0,0.29,0c0.36,0.02,0.73,0.03,1.09,0.06c0.63,0.04,1.26,0.07,1.89,0.07
	c0.9,0,1.79,0,2.69-0.01c0.31,0,0.63-0.02,0.94-0.03c0.85-0.04,1.7-0.08,2.54-0.11c0.05,0,0.1,0,0.14,0c0.17,0,0.28,0.09,0.3,0.25
	c0.03,0.34,0.03,0.68-0.01,1.02c0,0.02-0.01,0.05-0.01,0.07c-0.01,0.05-0.1,0.14-0.15,0.14c-0.33,0.05-0.67,0.11-1,0.16
	c-0.36,0.06-0.71,0.15-1.05,0.29c-0.13,0.06-0.26,0.12-0.38,0.2c-0.31,0.21-0.52,0.5-0.61,0.87c-0.08,0.33-0.14,0.66-0.14,1.01
	c-0.01,0.7-0.03,1.41-0.03,2.11c0,2.11-0.01,4.22,0,6.33c0.01,1.5,0.04,3.01,0.05,4.51c0,0.58,0.06,1.16,0.13,1.74
	c0.02,0.22,0.09,0.43,0.17,0.63c0.1,0.25,0.28,0.46,0.51,0.6c0.15,0.09,0.3,0.16,0.46,0.22c0.35,0.12,0.7,0.21,1.06,0.27
	c0.33,0.06,0.67,0.1,1.01,0.14c0.08,0.01,0.16,0.11,0.17,0.2c0.03,0.29,0.02,0.58,0.01,0.87c0,0.13-0.08,0.22-0.19,0.28
	c-0.09,0.04-0.18,0.08-0.28,0.09c-0.22,0.01-0.44,0.03-0.65,0.03c-0.73,0-1.46-0.01-2.18-0.02c-1.38-0.03-2.76-0.02-4.15,0.01
	c-0.58,0.01-1.16,0.03-1.75,0.08c-0.29,0.02-0.58,0.02-0.87,0.03c-0.07,0-0.16-0.06-0.17-0.11c-0.1-0.38-0.12-0.76-0.1-1.15
	c0-0.05,0.09-0.14,0.14-0.15c0.05-0.01,0.09-0.03,0.14-0.04c0.22-0.04,0.43-0.09,0.65-0.11c0.27-0.03,0.52-0.11,0.78-0.17
	c0.16-0.04,0.32-0.11,0.48-0.17c0.6-0.26,0.97-0.71,1.09-1.36c0.08-0.43,0.16-0.86,0.17-1.3c0.01-0.58,0.03-1.16,0.03-1.75
	c0-0.87,0-1.75-0.01-2.62C64.3,140.08,64.3,139.36,64.31,138.63L64.31,138.63z"/>
</svg>
